<?xml version="1.0" encoding="UTF-8" standalone="no"?>
<!-- Created with Inkscape (http://www.inkscape.org/) -->

<svg
   xmlns:dc="http://purl.org/dc/elements/1.1/"
   xmlns:cc="http://creativecommons.org/ns#"
   xmlns:rdf="http://www.w3.org/1999/02/22-rdf-syntax-ns#"
   xmlns:svg="http://www.w3.org/2000/svg"
   xmlns="http://www.w3.org/2000/svg"
   xmlns:sodipodi="http://sodipodi.sourceforge.net/DTD/sodipodi-0.dtd"
   xmlns:inkscape="http://www.inkscape.org/namespaces/inkscape"
   width="212.11627"
   height="34.798573"
   viewBox="0 0 56.122429 9.2071221"
   version="1.1"
   id="svg8"
   inkscape:version="0.92.4 (5da689c313, 2019-01-14)"
   sodipodi:docname="dark-logo.svg">
  <defs
     id="defs2" />
  <sodipodi:namedview
     id="base"
     pagecolor="#ffffff"
     bordercolor="#666666"
     borderopacity="1.0"
     inkscape:pageopacity="0.0"
     inkscape:pageshadow="2"
     inkscape:zoom="5.6"
     inkscape:cx="113.42114"
     inkscape:cy="-20.601437"
     inkscape:document-units="mm"
     inkscape:current-layer="svg8"
     showgrid="false"
     inkscape:window-width="1920"
     inkscape:window-height="1053"
     inkscape:window-x="1911"
     inkscape:window-y="-9"
     inkscape:window-maximized="1"
     showborder="false"
     units="px"
     inkscape:pagecheckerboard="true"
     fit-margin-top="0"
     fit-margin-left="0"
     fit-margin-right="0"
     fit-margin-bottom="0" />
  <metadata
     id="metadata5">
    <rdf:RDF>
      <cc:Work
         rdf:about="">
        <dc:format>image/svg+xml</dc:format>
        <dc:type
           rdf:resource="http://purl.org/dc/dcmitype/StillImage" />
        <dc:title></dc:title>
      </cc:Work>
    </rdf:RDF>
  </metadata>
  <g
     aria-label="Shilova"
     style="font-style:normal;font-variant:normal;font-weight:normal;font-stretch:normal;font-size:10.58333302px;line-height:1.25;font-family:'Brush Script Std';-inkscape-font-specification:'Brush Script Std';letter-spacing:0px;word-spacing:0px;opacity:0.23399999;fill:#000000;fill-opacity:0;stroke:#2892d7;stroke-width:0.26458332;stroke-opacity:0"
     id="text4922-1-7"
     transform="translate(-0.42355829,1.0503963)">
    <path
       d="m 26.740825,3.2301844 c 0.01058,-0.2434166 1.185334,-1.2276666 3.915833,-1.3229166 l 0.02117,0.021167 c -0.5715,0.3915833 -0.772583,0.7196666 -0.772583,0.7408333 0,0.1058333 0.0635,0.15875 0.169333,0.15875 0.08467,0 0.1905,-0.0635 0.264583,-0.1058333 0.41275,-0.2963334 0.497417,-0.34925 0.9525,-0.5185834 0.624417,-0.2434166 0.889,-0.4233333 0.889,-1.20649992 0,-0.21166666 -0.03175,-0.29633332 -0.275166,-0.34924999 -0.4445,-0.09525 -0.889,-0.14816666 -1.3335,-0.14816666 -2.31775,0 -4.233333,1.00541667 -4.561417,1.54516667 -0.169333,0.2857499 -0.338666,1.0583333 -0.338666,1.4075832 0,0.635 0.550333,0.8043334 1.0795,0.889 0.508,0.084667 3.439583,0.508 3.439583,1.04775 0,0.1693333 -1.037167,1.2594166 -4.815417,1.1218333 V 6.489851 c 0.0635,-0.0635 0.116417,-0.1164166 0.179917,-0.15875 0.07408,-0.042333 0.179917,-0.09525 0.179917,-0.2010833 0,-0.0635 -0.03175,-0.074083 -0.08467,-0.074083 -0.15875,0 -0.783167,0.2010833 -0.910167,0.3069166 -0.169333,0.15875 -0.53975,0.7196667 -0.53975,0.9419167 0,0.6138333 1.291167,0.6138333 1.703917,0.6138333 1.524,0 5.217583,-0.3386667 5.217583,-2.44475 0,-0.5185833 -0.497417,-1.0794999 -1.566333,-1.3334999 -2.95275,-0.6879167 -2.815167,-0.762 -2.815167,-0.910167 z"
       style="fill:#000000;fill-opacity:0.39215686;stroke:#2892d7;stroke-width:0.26458332;stroke-opacity:0"
       id="path4996"
       inkscape:connector-curvature="0" />
    <path
       d="m 32.348834,6.013601 c 0.677333,-0.6667499 4.042833,-4.1592498 4.042833,-4.8789165 0,-0.21166665 -0.28575,-0.28574998 -0.455083,-0.28574998 -0.359833,0 -2.465917,1.85208328 -3.71475,3.91583318 -0.370417,0.60325 -0.645583,1.11125 -0.645583,1.8415 0,0.2434166 0.05292,1.0689166 0.423333,1.0689166 0.338667,0 0.867833,-1.1218333 2.677583,-2.3600832 l 0.02117,0.021167 c -0.381,0.4974167 -1.11125,1.30175 -1.11125,1.9685 0,0.28575 0.169333,0.5609166 0.486833,0.5609166 0.582084,0 1.862667,-1.0371666 2.3495,-1.4075833 L 36.3705,6.0241848 c -0.306917,0.2010833 -1.0795,0.7725833 -1.42875,0.7725833 -0.127,0 -0.232834,-0.084667 -0.232834,-0.22225 0,-0.1058333 -0.03175,-0.1375833 0.624417,-0.9313333 0.127,-0.1481667 0.550333,-0.6138333 0.550333,-0.8149167 0,-0.2434166 -0.254,-0.508 -0.508,-0.508 -0.582083,0 -2.50825,1.6933333 -3.026833,2.1060833 z"
       style="fill:#000000;fill-opacity:0.39215686;stroke:#2892d7;stroke-width:0.26458332;stroke-opacity:0"
       id="path4998"
       inkscape:connector-curvature="0" />
    <path
       d="m 39.242884,5.981851 c -0.423334,0.3069167 -0.973667,0.8678333 -1.534583,0.8678333 -0.486834,0 -0.645584,-0.2328333 -0.560917,-0.6667499 0.4445,-0.3069167 1.49225,-1.2488333 1.49225,-1.778 0,-0.2328333 -0.28575,-0.2963333 -0.465667,-0.2963333 -0.635,0 -1.957916,1.2594166 -1.957916,2.5505832 0,0.53975 0.28575,1.2594167 0.910166,1.2594167 0.804333,0 1.735667,-0.9525 2.211917,-1.5345833 z M 38.745467,3.8969344 c 0.455083,0 0.846667,-0.5185833 0.846667,-0.9419166 0,-0.1905 -0.15875,-0.3280833 -0.34925,-0.3280833 -0.41275,0 -0.92075,0.381 -0.92075,0.8149166 0,0.254 0.169333,0.4550833 0.423333,0.4550833 z"
       style="fill:#000000;fill-opacity:0.39215686;stroke:#2892d7;stroke-width:0.26458332;stroke-opacity:0"
       id="path5000"
       inkscape:connector-curvature="0" />
    <path
       d="m 40.442438,4.7541844 c 0.497417,-1.0900833 1.100667,-2.0425833 1.61925,-2.2965833 -0.1905,0.60325 -0.846667,1.61925 -1.598083,2.31775 z m 2.06375,1.1218333 c -0.423333,0.381 -1.23825,1.0583333 -1.820333,1.0583333 -0.28575,0 -0.433917,-0.2116667 -0.529167,-0.4550833 -0.05292,-0.254 -0.02117,-0.5503333 0.07408,-0.73025 2.296584,-2.2224999 2.57175,-3.1538332 2.645833,-4.1592499 0.01058,-0.1375833 -0.03175,-0.3915833 -0.211666,-0.3915833 -0.338667,0 -1.344083,0.98425 -2.275417,2.1378333 -0.687916,0.8466666 -1.164166,2.0425833 -1.164166,3.1538332 0,0.6244167 0.169333,1.3758333 0.941916,1.3758333 0.910167,0 1.905,-1.0689166 2.487083,-1.6721666 z"
       style="fill:#000000;fill-opacity:0.39215686;stroke:#2892d7;stroke-width:0.26458332;stroke-opacity:0"
       id="path5002"
       inkscape:connector-curvature="0" />
    <path
       d="m 46.684289,5.727851 c -0.328084,0.2434167 -0.624417,0.6455834 -1.090084,0.5609167 0.201084,-0.41275 0.41275,-0.7831667 0.41275,-1.2488333 0,-0.3175 -0.0635,-0.53975 -0.381,-0.6244167 0.116417,-0.0635 0.243417,-0.127 0.243417,-0.2857499 0,-0.28575 -0.34925,-0.3915834 -0.582083,-0.381 -0.645584,0.03175 -1.407584,0.3175 -1.979083,0.7831666 -0.592667,0.4550833 -0.98425,0.98425 -0.963084,1.778 0.04233,0.9630833 0.550334,1.5134166 1.100667,1.5134166 0.66675,0 1.185333,-0.3386667 1.629833,-0.79375 0.772583,0 1.23825,-0.254 1.7145,-0.85725 z M 44.736955,4.9023511 c 0.04233,0.021167 -0.455083,0.6879166 -0.455083,1.2382499 0,0.1799167 0.05292,0.3175 0.127,0.4868333 -0.243417,0.22225 -0.465667,0.4233334 -0.814917,0.4233334 -0.264583,0 -0.465666,-0.09525 -0.465666,-0.4021667 0,-0.3280833 0.201083,-0.7408333 0.433916,-0.9736666 0.3175,-0.3069167 0.814917,-0.5609167 1.17475,-0.7725833 z"
       style="fill:#000000;fill-opacity:0.39215686;stroke:#2892d7;stroke-width:0.26458332;stroke-opacity:0"
       id="path5004"
       inkscape:connector-curvature="0" />
    <path
       d="m 49.493999,4.6906844 c -0.28575,0.3598333 -0.5715,0.762 -0.529167,1.2488333 -0.22225,0.2116667 -1.058333,0.98425 -1.36525,0.98425 -0.211666,0 -0.254,-0.2434167 -0.254,-0.41275 0,-0.1693333 0.105834,-0.4550833 0.15875,-0.6244167 0.381,-0.3175 1.375834,-1.3864166 1.375834,-1.8626666 0,-0.22225 -0.486834,-0.2434166 -0.635,-0.2434166 -0.370417,0 -1.672167,1.0159999 -1.672167,2.4764999 0,0.8043333 0.423333,1.5980833 1.04775,1.5980833 0.41275,0 1.481667,-0.9313333 1.778,-1.27 0.179917,0.127 0.328083,0.2751667 0.550333,0.2751667 0.592667,0 0.98425,-0.3280834 1.354667,-0.7514167 l -0.07408,-0.4445 c -0.232834,0.15875 -0.624417,0.4233334 -0.899584,0.4233334 -0.169333,0 -0.243416,-0.03175 -0.359833,-0.1375834 0.264583,-0.3704166 0.878417,-1.3652499 0.878417,-1.7885832 0,-0.2116667 -0.105834,-0.34925 -0.3175,-0.34925 -0.370417,0 -0.836084,0.6138333 -1.037167,0.8784166 z"
       style="fill:#000000;fill-opacity:0.39215686;stroke:#2892d7;stroke-width:0.26458332;stroke-opacity:0"
       id="path5006"
       inkscape:connector-curvature="0" />
    <path
       d="m 54.444683,4.8282677 0.02117,0.021167 c -2.0955,2.1166666 -2.423583,2.0849166 -2.63525,2.1272499 -0.15875,0.03175 -0.201083,-0.15875 -0.211666,-0.2116666 0,-0.5185833 0.306916,-1.1641667 2.82575,-1.93675 z m -0.5715,1.42875 0.02117,0.021167 C 53.75677,6.5639346 53.50277,7.1248513 53.50277,7.463518 c 0,0.3069166 0.15875,0.5609166 0.508,0.5609166 0.518583,0 1.93675,-1.1324166 2.391833,-1.6509999 L 56.317933,5.981851 c -0.455084,0.3069167 -1.058334,0.8466667 -1.502834,0.8466667 -0.169333,0 -0.328083,-0.074083 -0.328083,-0.254 0,-0.4974167 0.92075,-1.23825 0.92075,-1.5769166 0,-0.2328334 -0.105833,-0.34925 -0.306917,-0.4339167 0.09525,-0.03175 0.370417,-0.1375833 0.370417,-0.2645833 0,-0.127 -0.201083,-0.5185833 -0.687917,-0.508 -1.227666,0.03175 -3.979333,1.3864166 -3.937,2.7093333 0.02117,0.5503333 0.635,1.2488332 0.931334,1.2488332 0.243416,0 0.92075,-0.5503333 1.121833,-0.7090833 z"
       style="fill:#000000;fill-opacity:0.39215686;stroke:#2892d7;stroke-width:0.26458332;stroke-opacity:0"
       id="path5008"
       inkscape:connector-curvature="0" />
  </g>
  <g
     aria-label="Anna"
     style="font-style:normal;font-variant:normal;font-weight:normal;font-stretch:normal;font-size:10.58333302px;line-height:1.25;font-family:'Brush Script Std';-inkscape-font-specification:'Brush Script Std';letter-spacing:0px;word-spacing:0px;fill:#000000;fill-opacity:1;stroke:none;stroke-width:0.26458332"
     id="text4922"
     transform="translate(-0.42355829,1.0503963)">
    <path
       d="M 7.3123272,2.5161869 5.6930773,2.6326036 5.6719106,2.6114369 8.7304938,0.08202032 8.7516605,0.10318699 Z m 0.4974167,1.2488333 0.8466666,-0.042333 c 0.2328333,-0.4233333 0.4868333,-0.8466667 0.79375,-1.2065 -0.66675,-0.1481666 -0.1905,-0.042333 -0.9736666,-0.042333 L 9.7888271,0.17727032 c 0.1058334,-0.1905 0.3280829,-0.55033332 0.3280829,-0.77258331 0,-0.1905 -0.1481662,-0.45508331 -0.3704162,-0.45508331 -0.47625,0 -1.7462499,0.96308329 -2.7834166,1.82033326 L 4.5924106,2.7384369 c -0.042333,0 -0.4762499,0.021167 -0.6455833,0.03175 -0.052917,0 -0.1481666,-0.021167 -0.1481666,-0.09525 0,-0.1905 0.7725833,-0.09525 0.7725833,-0.28575 0,-0.1481666 -0.5715,-0.0635 -0.98425,0.074083 -0.5609167,0.1799167 -1.3335,1.0689167 -1.3335,1.27 0,0.2751667 0.34925,0.2328333 1.0265833,0.2116667 L 2.4545774,4.8551035 c -0.9948333,0.34925 -1.80974998,1.36525 -1.80974998,1.7145 0,0.2010833 0.21166666,0.2328333 0.37041668,0.2328333 0.381,0 0.7831666,-0.4445 1.0371666,-0.6985 L 4.221994,3.9449369 6.5291606,3.8708535 c -0.9313333,1.7145 -0.7725833,1.7039167 -0.7725833,1.7885833 0,0.3386667 0.15875,0.635 0.53975,0.635 0.7514166,0 1.6509999,-0.85725 2.1589999,-1.36525 l -0.1905,-0.2751666 C 7.6404105,5.1196868 7.5239939,5.2361035 7.3334939,5.2361035 c -0.1058333,0 -0.1905,-0.0635 -0.1905,-0.1693333 z"
       style="stroke-width:0.26458332"
       id="path5011"
       inkscape:connector-curvature="0" />
    <path
       d="m 13.982969,4.6328535 c -0.1905,0.15875 -0.656166,0.5291667 -0.910166,0.5291667 -0.105834,0 -0.1905,-0.09525 -0.1905,-0.1905 0,-0.73025 1.30175,-1.5345833 1.30175,-1.9473333 -0.03175,-0.22225 -0.09525,-0.41275 -0.15875,-0.5715 -0.0635,-0.1481666 -0.127,-0.2010833 -0.169334,-0.2010833 -0.306916,0 -2.25425,1.3017499 -3.100916,2.3812499 -0.04233,0.052917 -0.137584,0.1481667 -0.211667,0.1481667 -0.0635,0 -0.116417,-0.052917 -0.116417,-0.1164167 0,-0.254 1.3335,-1.3229166 1.3335,-1.7356666 0,-0.0635 0.05292,-0.2116667 -0.582083,-0.2328333 -0.179917,0 -0.275167,0.010583 -0.41275,0.127 -0.613833,0.5185833 -1.2805833,1.5874999 -1.2488333,2.3177499 0.010583,0.3598333 0.127,1.0265833 0.5926663,1.0265833 0.28575,0 0.677334,-0.5185833 0.836084,-0.7196666 0.47625,-0.6138334 1.016,-1.1641667 1.629833,-1.61925 l 0.02117,0.021167 c -0.338667,0.4868333 -0.910167,1.1853333 -0.910167,1.8203333 0,0.3598333 0.1905,0.6984999 0.592667,0.6984999 0.772583,0 1.862666,-1.3017499 2.423583,-1.7991666 l -0.08467,-0.4656666 z"
       style="stroke-width:0.26458332"
       id="path5013"
       inkscape:connector-curvature="0" />
    <path
       d="m 18.861224,4.6328535 c -0.1905,0.15875 -0.656167,0.5291667 -0.910167,0.5291667 -0.105833,0 -0.1905,-0.09525 -0.1905,-0.1905 0,-0.73025 1.30175,-1.5345833 1.30175,-1.9473333 -0.03175,-0.22225 -0.09525,-0.41275 -0.15875,-0.5715 -0.0635,-0.1481666 -0.127,-0.2010833 -0.169333,-0.2010833 -0.306917,0 -2.25425,1.3017499 -3.100916,2.3812499 -0.04233,0.052917 -0.137584,0.1481667 -0.211667,0.1481667 -0.0635,0 -0.116417,-0.052917 -0.116417,-0.1164167 0,-0.254 1.3335,-1.3229166 1.3335,-1.7356666 0,-0.0635 0.05292,-0.2116667 -0.582083,-0.2328333 -0.179917,0 -0.275167,0.010583 -0.41275,0.127 -0.613833,0.5185833 -1.280583,1.5874999 -1.248833,2.3177499 0.01058,0.3598333 0.127,1.0265833 0.592666,1.0265833 0.28575,0 0.677334,-0.5185833 0.836084,-0.7196666 0.476249,-0.6138334 1.015999,-1.1641667 1.629833,-1.61925 l 0.02117,0.021167 c -0.338666,0.4868333 -0.910166,1.1853333 -0.910166,1.8203333 0,0.3598333 0.1905,0.6984999 0.592666,0.6984999 0.772584,0 1.862667,-1.3017499 2.423584,-1.7991666 l -0.08467,-0.4656666 z"
       style="stroke-width:0.26458332"
       id="path5015"
       inkscape:connector-curvature="0" />
    <path
       d="m 22.691729,3.2676036 0.02117,0.021167 c -2.0955,2.1166666 -2.423584,2.0849166 -2.63525,2.12725 -0.15875,0.03175 -0.201084,-0.15875 -0.211667,-0.2116667 0,-0.5185833 0.306917,-1.1641666 2.82575,-1.9367499 z m -0.5715,1.4287499 0.02117,0.021167 c -0.137584,0.28575 -0.391584,0.8466666 -0.391584,1.1853333 0,0.3069166 0.15875,0.5609166 0.508,0.5609166 0.518584,0 1.93675,-1.1324166 2.391834,-1.6509999 l -0.08467,-0.3915833 c -0.455083,0.3069166 -1.058333,0.8466666 -1.502833,0.8466666 -0.169334,0 -0.328084,-0.074083 -0.328084,-0.254 0,-0.4974166 0.92075,-1.23825 0.92075,-1.5769166 0,-0.2328333 -0.105833,-0.34925 -0.306916,-0.4339167 0.09525,-0.03175 0.370416,-0.1375833 0.370416,-0.2645833 0,-0.127 -0.201083,-0.5185833 -0.687916,-0.508 -1.227667,0.03175 -3.979334,1.3864166 -3.937,2.7093333 0.02117,0.5503333 0.635,1.2488333 0.931333,1.2488333 0.243417,0 0.92075,-0.5503333 1.121833,-0.7090833 z"
       style="stroke-width:0.26458332"
       id="path5017"
       inkscape:connector-curvature="0" />
  </g>
  <g
     aria-label="Shilova"
     style="font-style:normal;font-variant:normal;font-weight:normal;font-stretch:normal;font-size:10.58333302px;line-height:1.25;font-family:'Brush Script Std';-inkscape-font-specification:'Brush Script Std';letter-spacing:0px;word-spacing:0px;opacity:1;fill:#2892d7;fill-opacity:1;stroke:#2892d7;stroke-width:0.1;stroke-miterlimit:4;stroke-dasharray:none;stroke-opacity:1"
     id="text4922-1"
     transform="translate(-0.42355829,1.0503963)">
    <path
       d="m 26.761697,1.8271359 c 0.01058,-0.2434166 1.185334,-1.2276666 3.915834,-1.32291659 l 0.02117,0.0211667 c -0.5715,0.39158332 -0.772583,0.71966659 -0.772583,0.74083329 0,0.1058333 0.0635,0.15875 0.169333,0.15875 0.08467,0 0.1905,-0.0635 0.264584,-0.1058334 0.41275,-0.2963333 0.497416,-0.3492499 0.9525,-0.51858323 0.624416,-0.24341666 0.888999,-0.42333332 0.888999,-1.20649996 0,-0.21166666 -0.03175,-0.29633333 -0.275166,-0.34924999 -0.4445,-0.09525 -0.889,-0.14816667 -1.3335,-0.14816667 -2.31775,0 -4.233333,1.00541664 -4.561417,1.54516663 -0.169333,0.28574999 -0.338666,1.05833322 -0.338666,1.40758322 0,0.635 0.550333,0.8043333 1.0795,0.889 0.508,0.084667 3.439583,0.508 3.439583,1.04775 0,0.1693333 -1.037167,1.2594166 -4.815417,1.1218333 v -0.021167 c 0.0635,-0.0635 0.116417,-0.1164167 0.179917,-0.15875 0.07408,-0.042333 0.179917,-0.09525 0.179917,-0.2010833 0,-0.0635 -0.03175,-0.074083 -0.08467,-0.074083 -0.15875,0 -0.783167,0.2010834 -0.910167,0.3069167 -0.169333,0.15875 -0.53975,0.7196667 -0.53975,0.9419166 0,0.6138334 1.291167,0.6138334 1.703917,0.6138334 1.524,0 5.217583,-0.3386667 5.217583,-2.44475 0,-0.5185833 -0.497416,-1.0794999 -1.566333,-1.3334999 -2.95275,-0.6879167 -2.815167,-0.762 -2.815167,-0.9101667 z"
       style="fill:#2892d7;fill-opacity:1;stroke:#2892d7;stroke-width:0.1;stroke-miterlimit:4;stroke-dasharray:none;stroke-opacity:1"
       id="path5020"
       inkscape:connector-curvature="0" />
    <path
       d="m 32.369706,4.6105525 c 0.677333,-0.66675 4.042833,-4.15924986 4.042833,-4.8789165 0,-0.21166666 -0.28575,-0.28575 -0.455083,-0.28575 -0.359833,0 -2.465917,1.8520833 -3.71475,3.9158332 -0.370416,0.60325 -0.645583,1.11125 -0.645583,1.8415 0,0.2434166 0.05292,1.0689166 0.423333,1.0689166 0.338667,0 0.867833,-1.1218333 2.677583,-2.3600833 l 0.02117,0.021167 c -0.381,0.4974167 -1.11125,1.30175 -1.11125,1.9684999 0,0.28575 0.169333,0.5609167 0.486833,0.5609167 0.582084,0 1.862667,-1.0371666 2.3495,-1.4075833 l -0.05292,-0.4339167 c -0.306917,0.2010834 -1.0795,0.7725834 -1.42875,0.7725834 -0.127,0 -0.232834,-0.084667 -0.232834,-0.22225 0,-0.1058334 -0.03175,-0.1375834 0.624417,-0.9313333 0.127,-0.1481667 0.550333,-0.6138334 0.550333,-0.8149167 0,-0.2434166 -0.254,-0.508 -0.508,-0.508 -0.582083,0 -2.50825,1.6933333 -3.026833,2.1060833 z"
       style="fill:#2892d7;fill-opacity:1;stroke:#2892d7;stroke-width:0.1;stroke-miterlimit:4;stroke-dasharray:none;stroke-opacity:1"
       id="path5022"
       inkscape:connector-curvature="0" />
    <path
       d="m 39.263756,4.5788025 c -0.423333,0.3069167 -0.973667,0.8678333 -1.534583,0.8678333 -0.486834,0 -0.645584,-0.2328333 -0.560917,-0.66675 0.4445,-0.3069166 1.49225,-1.2488333 1.49225,-1.7779999 0,-0.2328333 -0.28575,-0.2963333 -0.465667,-0.2963333 -0.635,0 -1.957916,1.2594166 -1.957916,2.5505832 0,0.53975 0.28575,1.2594167 0.910166,1.2594167 0.804334,0 1.735667,-0.9525 2.211917,-1.5345833 z M 38.766339,2.4938859 c 0.455084,0 0.846667,-0.5185833 0.846667,-0.9419166 0,-0.1905 -0.15875,-0.3280833 -0.34925,-0.3280833 -0.41275,0 -0.92075,0.3809999 -0.92075,0.8149166 0,0.254 0.169333,0.4550833 0.423333,0.4550833 z"
       style="fill:#2892d7;fill-opacity:1;stroke:#2892d7;stroke-width:0.1;stroke-miterlimit:4;stroke-dasharray:none;stroke-opacity:1"
       id="path5024"
       inkscape:connector-curvature="0" />
    <path
       d="m 40.46331,3.3511359 c 0.497417,-1.0900833 1.100667,-2.0425833 1.61925,-2.2965833 -0.1905,0.60325 -0.846667,1.61925 -1.598083,2.31775 z m 2.06375,1.1218333 c -0.423333,0.381 -1.23825,1.0583333 -1.820333,1.0583333 -0.28575,0 -0.433917,-0.2116667 -0.529167,-0.4550833 -0.05292,-0.254 -0.02117,-0.5503333 0.07408,-0.73025 2.296584,-2.2224999 2.57175,-3.1538332 2.645834,-4.15924988 0.01058,-0.13758333 -0.03175,-0.39158333 -0.211667,-0.39158333 -0.338667,0 -1.344083,0.98424997 -2.275417,2.13783331 -0.687916,0.8466666 -1.164166,2.0425832 -1.164166,3.1538332 0,0.6244166 0.169333,1.3758333 0.941916,1.3758333 0.910167,0 1.905,-1.0689166 2.487084,-1.6721666 z"
       style="fill:#2892d7;fill-opacity:1;stroke:#2892d7;stroke-width:0.1;stroke-miterlimit:4;stroke-dasharray:none;stroke-opacity:1"
       id="path5026"
       inkscape:connector-curvature="0" />
    <path
       d="m 46.705161,4.3248025 c -0.328083,0.2434167 -0.624417,0.6455833 -1.090083,0.5609167 0.201083,-0.41275 0.41275,-0.7831667 0.41275,-1.2488333 0,-0.3175 -0.0635,-0.53975 -0.381,-0.6244167 0.116416,-0.0635 0.243416,-0.127 0.243416,-0.28575 0,-0.28575 -0.34925,-0.3915833 -0.582083,-0.3809999 -0.645583,0.03175 -1.407583,0.3174999 -1.979083,0.7831666 -0.592667,0.4550833 -0.98425,0.98425 -0.963084,1.7779999 0.04233,0.9630833 0.550334,1.5134167 1.100667,1.5134167 0.66675,0 1.185333,-0.3386667 1.629833,-0.79375 0.772584,0 1.23825,-0.254 1.7145,-0.85725 z m -1.947333,-0.8255 c 0.04233,0.021167 -0.455084,0.6879167 -0.455084,1.23825 0,0.1799167 0.05292,0.3175 0.127,0.4868333 -0.243416,0.22225 -0.465666,0.4233334 -0.814916,0.4233334 -0.264584,0 -0.465667,-0.09525 -0.465667,-0.4021667 0,-0.3280833 0.201083,-0.7408333 0.433917,-0.9736666 0.3175,-0.3069167 0.814916,-0.5609167 1.17475,-0.7725834 z"
       style="fill:#2892d7;fill-opacity:1;stroke:#2892d7;stroke-width:0.1;stroke-miterlimit:4;stroke-dasharray:none;stroke-opacity:1"
       id="path5028"
       inkscape:connector-curvature="0" />
    <path
       d="m 49.514871,3.2876359 c -0.28575,0.3598333 -0.5715,0.762 -0.529166,1.2488333 -0.22225,0.2116666 -1.058334,0.98425 -1.36525,0.98425 -0.211667,0 -0.254,-0.2434167 -0.254,-0.41275 0,-0.1693334 0.105833,-0.4550834 0.15875,-0.6244167 0.381,-0.3175 1.375833,-1.3864166 1.375833,-1.8626666 0,-0.22225 -0.486833,-0.2434167 -0.635,-0.2434167 -0.370417,0 -1.672167,1.016 -1.672167,2.4765 0,0.8043333 0.423334,1.5980833 1.04775,1.5980833 0.41275,0 1.481667,-0.9313333 1.778,-1.27 0.179917,0.127 0.328083,0.2751667 0.550333,0.2751667 0.592667,0 0.98425,-0.3280834 1.354667,-0.7514167 l -0.07408,-0.4445 c -0.232834,0.15875 -0.624417,0.4233333 -0.899584,0.4233333 -0.169333,0 -0.243416,-0.03175 -0.359833,-0.1375833 0.264583,-0.3704166 0.878417,-1.3652499 0.878417,-1.7885833 0,-0.2116666 -0.105834,-0.34925 -0.3175,-0.34925 -0.370417,0 -0.836084,0.6138334 -1.037167,0.8784167 z"
       style="fill:#2892d7;fill-opacity:1;stroke:#2892d7;stroke-width:0.1;stroke-miterlimit:4;stroke-dasharray:none;stroke-opacity:1"
       id="path5030"
       inkscape:connector-curvature="0" />
    <path
       d="m 54.465555,3.4252192 0.02117,0.021167 c -2.095499,2.1166666 -2.423583,2.0849166 -2.635249,2.1272499 -0.15875,0.03175 -0.201084,-0.15875 -0.211667,-0.2116666 0,-0.5185834 0.306917,-1.1641667 2.82575,-1.93675 z m -0.5715,1.42875 0.02117,0.021167 c -0.137583,0.28575 -0.391583,0.8466667 -0.391583,1.1853333 0,0.3069167 0.15875,0.5609167 0.508,0.5609167 0.518583,0 1.93675,-1.1324166 2.391833,-1.651 l -0.08467,-0.3915833 c -0.455084,0.3069167 -1.058334,0.8466667 -1.502834,0.8466667 -0.169333,0 -0.328083,-0.074083 -0.328083,-0.254 0,-0.4974167 0.92075,-1.23825 0.92075,-1.5769167 0,-0.2328333 -0.105833,-0.3492499 -0.306917,-0.4339166 0.09525,-0.03175 0.370417,-0.1375833 0.370417,-0.2645833 0,-0.127 -0.201083,-0.5185834 -0.687917,-0.508 -1.227666,0.03175 -3.979333,1.3864166 -3.936999,2.7093332 0.02117,0.5503334 0.635,1.2488333 0.931333,1.2488333 0.243417,0 0.92075,-0.5503333 1.121833,-0.7090833 z"
       style="fill:#2892d7;fill-opacity:1;stroke:#2892d7;stroke-width:0.1;stroke-miterlimit:4;stroke-dasharray:none;stroke-opacity:1"
       id="path5032"
       inkscape:connector-curvature="0" />
  </g>
  <g
     aria-label="Anna"
     style="font-style:normal;font-variant:normal;font-weight:normal;font-stretch:normal;font-size:10.58333302px;line-height:1.25;font-family:'Brush Script Std';-inkscape-font-specification:'Brush Script Std';letter-spacing:0px;word-spacing:0px;opacity:0.14500002;fill:#000000;fill-opacity:1;stroke:none;stroke-width:0.26458332"
     id="text4922-2"
     transform="translate(-0.42355829,1.0503963)">
    <path
       d="m 7.0910581,3.6659901 -1.61925,0.1164166 -0.021167,-0.021167 3.0585832,-2.5294166 0.021167,0.021167 z M 7.5884747,4.9148234 8.4351414,4.87249 C 8.6679747,4.4491567 8.9219747,4.0258234 9.2288914,3.6659901 8.5621414,3.5178234 9.0383914,3.6236567 8.2552247,3.6236567 L 9.567558,1.3270735 c 0.1058333,-0.1905 0.3280833,-0.55033334 0.3280833,-0.77258333 0,-0.1905 -0.1481666,-0.45508332 -0.3704166,-0.45508332 -0.47625,0 -1.74625,0.96308335 -2.7834166,1.82033325 l -2.3706666,1.9685 c -0.042333,0 -0.47625,0.021167 -0.6455833,0.03175 -0.052917,0 -0.1481667,-0.021167 -0.1481667,-0.09525 0,-0.1905 0.7725833,-0.09525 0.7725833,-0.28575 0,-0.1481667 -0.5714999,-0.0635 -0.9842499,0.074083 -0.5609167,0.1799167 -1.3335,1.0689166 -1.3335,1.27 0,0.2751666 0.34925,0.2328333 1.0265833,0.2116666 l -0.8255,0.9101667 c -0.9948333,0.34925 -1.80974991,1.3652499 -1.80974991,1.7144999 0,0.2010833 0.21166666,0.2328333 0.37041666,0.2328333 0.38099995,0 0.78316665,-0.4444999 1.03716665,-0.6984999 l 2.1695832,-2.159 2.3071666,-0.074083 C 5.3765581,6.7351566 5.5353081,6.7245733 5.5353081,6.80924 c 0,0.3386666 0.15875,0.635 0.53975,0.635 0.7514167,0 1.651,-0.85725 2.159,-1.36525 l -0.1905,-0.2751667 C 7.4191414,6.26949 7.3027248,6.3859067 7.1122248,6.3859067 c -0.1058334,0 -0.1905,-0.0635 -0.1905,-0.1693334 z"
       style="stroke-width:0.26458332"
       id="path5035"
       inkscape:connector-curvature="0" />
    <path
       d="m 13.7617,5.7826567 c -0.1905,0.15875 -0.656167,0.5291666 -0.910167,0.5291666 -0.105833,0 -0.1905,-0.09525 -0.1905,-0.1905 0,-0.7302499 1.30175,-1.5345833 1.30175,-1.9473332 -0.03175,-0.22225 -0.09525,-0.41275 -0.15875,-0.5715 -0.0635,-0.1481667 -0.127,-0.2010834 -0.169333,-0.2010834 -0.306917,0 -2.25425,1.30175 -3.100917,2.38125 -0.04233,0.052917 -0.137583,0.1481666 -0.211666,0.1481666 -0.0635,0 -0.116417,-0.052917 -0.116417,-0.1164166 0,-0.254 1.3335,-1.3229167 1.3335,-1.7356666 0,-0.0635 0.05292,-0.2116667 -0.582083,-0.2328334 -0.179917,0 -0.275167,0.010583 -0.41275,0.127 -0.6138335,0.5185833 -1.2805835,1.5875 -1.2488335,2.31775 0.010583,0.3598333 0.127,1.0265833 0.5926667,1.0265833 0.2857498,0 0.6773328,-0.5185834 0.8360828,-0.7196667 0.47625,-0.6138333 1.016,-1.1641666 1.629834,-1.6192499 l 0.02117,0.021167 c -0.338666,0.4868334 -0.910166,1.1853333 -0.910166,1.8203333 0,0.3598333 0.1905,0.6985 0.592666,0.6985 0.772584,0 1.862667,-1.30175 2.423584,-1.7991666 L 14.3967,5.25349 Z"
       style="stroke-width:0.26458332"
       id="path5037"
       inkscape:connector-curvature="0" />
    <path
       d="m 18.639955,5.7826567 c -0.1905,0.15875 -0.656167,0.5291666 -0.910167,0.5291666 -0.105833,0 -0.1905,-0.09525 -0.1905,-0.1905 0,-0.7302499 1.30175,-1.5345833 1.30175,-1.9473332 -0.03175,-0.22225 -0.09525,-0.41275 -0.15875,-0.5715 -0.0635,-0.1481667 -0.127,-0.2010834 -0.169333,-0.2010834 -0.306917,0 -2.25425,1.30175 -3.100917,2.38125 -0.04233,0.052917 -0.137583,0.1481666 -0.211666,0.1481666 -0.0635,0 -0.116417,-0.052917 -0.116417,-0.1164166 0,-0.254 1.3335,-1.3229167 1.3335,-1.7356666 0,-0.0635 0.05292,-0.2116667 -0.582083,-0.2328334 -0.179917,0 -0.275167,0.010583 -0.41275,0.127 -0.613834,0.5185833 -1.280584,1.5875 -1.248834,2.31775 0.01058,0.3598333 0.127,1.0265833 0.592667,1.0265833 0.28575,0 0.677333,-0.5185834 0.836083,-0.7196667 0.47625,-0.6138333 1.016,-1.1641666 1.629834,-1.6192499 l 0.02117,0.021167 c -0.338666,0.4868334 -0.910166,1.1853333 -0.910166,1.8203333 0,0.3598333 0.1905,0.6985 0.592666,0.6985 0.772584,0 1.862667,-1.30175 2.423584,-1.7991666 L 19.274955,5.25349 Z"
       style="stroke-width:0.26458332"
       id="path5039"
       inkscape:connector-curvature="0" />
    <path
       d="m 22.47046,4.4174067 0.02117,0.021167 c -2.0955,2.1166666 -2.423584,2.0849166 -2.63525,2.1272499 -0.15875,0.03175 -0.201084,-0.15875 -0.211667,-0.2116666 0,-0.5185834 0.306917,-1.1641667 2.82575,-1.93675 z m -0.5715,1.42875 0.02117,0.021167 c -0.137584,0.28575 -0.391584,0.8466667 -0.391584,1.1853333 0,0.3069167 0.15875,0.5609167 0.508,0.5609167 0.518584,0 1.93675,-1.1324166 2.391833,-1.651 L 24.34371,5.57099 c -0.455083,0.3069167 -1.058333,0.8466667 -1.502833,0.8466667 -0.169334,0 -0.328084,-0.074083 -0.328084,-0.254 0,-0.4974167 0.92075,-1.23825 0.92075,-1.5769167 0,-0.2328333 -0.105833,-0.3492499 -0.306916,-0.4339166 0.09525,-0.03175 0.370416,-0.1375833 0.370416,-0.2645833 0,-0.127 -0.201083,-0.5185834 -0.687916,-0.508 -1.227667,0.03175 -3.979334,1.3864166 -3.937,2.7093332 0.02117,0.5503334 0.635,1.2488333 0.931333,1.2488333 0.243417,0 0.92075,-0.5503333 1.121833,-0.7090833 z"
       style="stroke-width:0.26458332"
       id="path5041"
       inkscape:connector-curvature="0" />
  </g>
</svg>
