<?xml version="1.0" encoding="UTF-8" standalone="no"?>
<!-- Created with Inkscape (http://www.inkscape.org/) -->

<svg
   xmlns:dc="http://purl.org/dc/elements/1.1/"
   xmlns:cc="http://creativecommons.org/ns#"
   xmlns:rdf="http://www.w3.org/1999/02/22-rdf-syntax-ns#"
   xmlns:svg="http://www.w3.org/2000/svg"
   xmlns="http://www.w3.org/2000/svg"
   xmlns:sodipodi="http://sodipodi.sourceforge.net/DTD/sodipodi-0.dtd"
   xmlns:inkscape="http://www.inkscape.org/namespaces/inkscape"
   width="132.23111"
   height="19.707054"
   viewBox="0 0 34.986147 5.2141579"
   version="1.1"
   id="svg8"
   inkscape:version="0.92.4 (5da689c313, 2019-01-14)"
   sodipodi:docname="dark-logoScript.svg"
   inkscape:label="anna-shadow">
  <defs
     id="defs2" />
  <sodipodi:namedview
     id="base"
     pagecolor="#ffffff"
     bordercolor="#666666"
     borderopacity="1.0"
     inkscape:pageopacity="0.0"
     inkscape:pageshadow="2"
     inkscape:zoom="5.6"
     inkscape:cx="70.116888"
     inkscape:cy="-26.262482"
     inkscape:document-units="mm"
     inkscape:current-layer="svg8"
     showgrid="false"
     inkscape:window-width="1920"
     inkscape:window-height="1053"
     inkscape:window-x="-9"
     inkscape:window-y="-9"
     inkscape:window-maximized="1"
     showborder="false"
     units="px"
     inkscape:pagecheckerboard="true"
     fit-margin-top="0"
     fit-margin-left="0"
     fit-margin-right="0"
     fit-margin-bottom="0" />
  <metadata
     id="metadata5">
    <rdf:RDF>
      <cc:Work
         rdf:about="">
        <dc:format>image/svg+xml</dc:format>
        <dc:type
           rdf:resource="http://purl.org/dc/dcmitype/StillImage" />
        <dc:title></dc:title>
      </cc:Work>
    </rdf:RDF>
  </metadata>
  <g
     id="g2262">
    <g
       transform="translate(1.5033053,0.34496713)"
       id="g2185">
      <g
         id="text2047"
         style="font-style:normal;font-variant:normal;font-weight:normal;font-stretch:normal;font-size:6.3499999px;line-height:1.25;font-family:'Alex Brush';-inkscape-font-specification:'Alex Brush, Normal';font-variant-ligatures:normal;font-variant-caps:normal;font-variant-numeric:normal;font-feature-settings:normal;text-align:start;letter-spacing:0px;word-spacing:0px;writing-mode:lr-tb;text-anchor:start;fill:#000000;fill-opacity:1;stroke:none;stroke-width:0.26458332"
         aria-label=" Shilova
">
        <path
           inkscape:connector-curvature="0"
           id="path2211"
           style="font-style:normal;font-variant:normal;font-weight:normal;font-stretch:normal;font-size:7.05555534px;font-family:'Alex Brush';-inkscape-font-specification:'Alex Brush, Normal';font-variant-ligatures:normal;font-variant-caps:normal;font-variant-numeric:normal;font-feature-settings:normal;text-align:start;writing-mode:lr-tb;text-anchor:start"
           d="m 20.339888,1.0449773 q -0.261056,0.1058333 -0.451556,0.1058333 -0.183444,0 -0.183444,-0.077611 0,-0.049389 0.204611,-0.056444 0.211666,-0.00706 0.303389,-0.0493889 0.268111,-0.14111111 0.268111,-0.41627777 0,-0.14111111 -0.07761,-0.29633332 -0.225778,-0.40216666 -1.093611,-0.40216666 -0.500945,0 -1.001889,0.15522222 -0.500945,0.14816666 -0.839611,0.46566665 -0.338667,0.31044444 -0.338667,0.57855548 0,0.4092222 0.811389,0.5997222 l 0.832555,0.1552223 Q 19.2745,1.8986998 19.521444,2.0609777 19.846,2.2585333 19.846,2.6254222 q 0,0.1481666 -0.04939,0.3175 -0.225778,0.7619999 -1.164167,1.1641666 -0.783166,0.3457222 -1.848555,0.3457222 -0.303389,0 -0.529167,-0.028222 0.225778,0.127 0.592667,0.2187222 0.02822,0.00706 0.02822,0.028222 0,0.0635 -0.148167,0.0635 -0.289278,0 -0.719666,-0.3457222 Q 15.422166,4.2975883 15.132888,4.064755 14.949443,3.9165883 14.794221,3.6273105 14.638999,3.3380328 14.638999,3.1051994 q 0,-0.2328333 0.09172,-0.3880555 0.211667,-0.3739444 0.536222,-0.3739444 0.246945,0 0.289278,0.4162777 0.09878,0.8043333 0.134056,0.9172222 0.105833,0.3457222 0.359833,0.5856111 0.296333,0.0635 0.642055,0.0635 0.762,0 1.495778,-0.3033889 0.733778,-0.3033888 1.058334,-0.8607777 0.134055,-0.2187222 0.134055,-0.3880556 0,-0.3316111 -0.585611,-0.5150555 L 17.552943,1.9763106 q -0.381,-0.091722 -0.613833,-0.3033889 -0.225778,-0.2116667 -0.225778,-0.4868333 0,-0.42333334 0.529167,-0.84666666 0.402166,-0.32455554 0.980722,-0.50094443 0.585611,-0.18344444 1.143,-0.18344444 0.564444,0 0.931333,0.16227778 0.472722,0.21872221 0.472722,0.64205553 0,0.41627777 -0.430388,0.58561112 z M 15.79611,4.191755 q -0.409222,-0.4515556 -0.522111,-1.2347222 -0.0635,-0.4445 -0.119945,-0.4445 -0.05644,0 -0.105833,0.035278 -0.04939,0.028222 -0.09878,0.1340555 -0.04939,0.1058333 -0.04939,0.2751667 0,0.5432777 0.381,0.9313333 0.1905,0.1975555 0.515056,0.3033889 z" />
        <path
           inkscape:connector-curvature="0"
           id="path2213"
           style="font-style:normal;font-variant:normal;font-weight:normal;font-stretch:normal;font-size:7.05555534px;font-family:'Alex Brush';-inkscape-font-specification:'Alex Brush, Normal';font-variant-ligatures:normal;font-variant-caps:normal;font-variant-numeric:normal;font-feature-settings:normal;text-align:start;writing-mode:lr-tb;text-anchor:start"
           d="m 21.708996,4.0365327 q -0.416278,0 -0.416278,-0.4868333 0,-0.2751666 0.1905,-0.6067777 0.197555,-0.3386667 0.479778,-0.7902222 -0.903111,0.4515555 -1.636889,1.3334999 -0.409222,0.6138333 -0.479778,0.6138333 -0.204611,0 -0.204611,-0.1199444 0,-0.0635 0.08467,-0.2257778 0.684388,-1.220611 1.037166,-1.7850555 0.839611,-1.34761104 1.185333,-1.46049993 0.01411,-0.007056 0.02822,-0.007056 0.09172,0 0.127,0.14816667 -0.02117,0.14816666 -0.733778,1.07244446 -0.740833,0.9383888 -0.839611,1.2276666 0.261055,-0.1905 0.910167,-0.6420555 0.698499,-0.4868333 0.924277,-0.4868333 0.225778,0 0.225778,0.1763888 0,0.028222 -0.0071,0.042333 0,0.00706 -0.486833,0.6632222 -0.486833,0.6561666 -0.486833,0.9666111 0,0.1622777 0.119944,0.1622777 0.381,-0.014111 1.143,-0.9172222 0.0635,-0.0635 0.09172,-0.0635 0.03528,0 0.03528,0.042333 0,0.1411111 -0.6985,0.762 -0.437444,0.3809999 -0.592666,0.3809999 z" />
        <path
           inkscape:connector-curvature="0"
           id="path2215"
           style="font-style:normal;font-variant:normal;font-weight:normal;font-stretch:normal;font-size:7.05555534px;font-family:'Alex Brush';-inkscape-font-specification:'Alex Brush, Normal';font-variant-ligatures:normal;font-variant-caps:normal;font-variant-numeric:normal;font-feature-settings:normal;text-align:start;writing-mode:lr-tb;text-anchor:start"
           d="m 24.227498,1.1860884 q 0.105833,0 0.197556,0.070556 0.09878,0.0635 0.09878,0.1552223 0,0.091722 -0.09172,0.1622777 -0.08467,0.0635 -0.1905,0.0635 -0.105833,0 -0.197555,-0.077611 -0.08467,-0.077611 -0.08467,-0.1763889 0,-0.1975555 0.268111,-0.1975555 z m -1.277055,2.9562777 q -0.359834,0 -0.359834,-0.4656667 0,-0.381 0.416278,-1.0512777 0.416278,-0.6773333 0.670278,-0.6843889 0.07056,0 0.155222,0.056444 0.09172,0.056445 0.09172,0.1128889 -0.03528,0.049389 -0.08467,0.1128889 -0.04939,0.056445 -0.105834,0.127 -0.05644,0.070556 -0.155222,0.2046111 -0.09878,0.127 -0.1905,0.2469445 -0.529167,0.6843888 -0.529167,0.9454444 0,0.254 0.176389,0.254 0.148167,0 0.402167,-0.1622778 0.592667,-0.3668889 0.938389,-0.8043333 0.127,-0.1622778 0.169333,-0.1622778 0.04939,0 0.04939,0.056445 0,0.056444 -0.162278,0.2257777 -0.162278,0.1693334 -0.261055,0.2681111 -0.09172,0.098778 -0.127,0.1340556 -0.03528,0.028222 -0.134056,0.1199444 -0.09172,0.084667 -0.141111,0.1199445 -0.04939,0.035278 -0.141111,0.1058333 -0.09172,0.070556 -0.162278,0.1058333 -0.07055,0.028222 -0.162278,0.070556 -0.148166,0.0635 -0.352777,0.0635 z" />
        <path
           inkscape:connector-curvature="0"
           id="path2217"
           style="font-style:normal;font-variant:normal;font-weight:normal;font-stretch:normal;font-size:7.05555534px;font-family:'Alex Brush';-inkscape-font-specification:'Alex Brush, Normal';font-variant-ligatures:normal;font-variant-caps:normal;font-variant-numeric:normal;font-feature-settings:normal;text-align:start;writing-mode:lr-tb;text-anchor:start"
           d="m 24.570133,3.7119772 q 0,0.2116667 0.232834,0.2116667 0.232833,0 0.599722,-0.2469445 0.366889,-0.2469444 0.712611,-0.6702777 0.08467,-0.1128889 0.134056,-0.1128889 0.04939,0 0.04939,0.042333 0,0.042333 -0.289277,0.3668889 -0.705556,0.7761111 -1.178278,0.7761111 -0.232833,0 -0.395111,-0.1058334 -0.16228,-0.1128885 -0.16228,-0.3386663 0,-0.2328333 0.119944,-0.5362222 0.204612,-0.4797778 0.656167,-1.2065 0.8255,-1.3405555 1.171222,-1.3405555 0.07056,0 0.141111,0.0564444 0.07761,0.0493889 0.08467,0.11288889 -0.162278,0.21872222 -0.627944,0.83961111 -0.458611,0.6208889 -0.635,0.8960555 -0.176389,0.2681111 -0.268111,0.4021667 -0.08467,0.1340556 -0.127,0.2116667 -0.04233,0.070555 -0.09878,0.1905 -0.119945,0.2398888 -0.119946,0.4515555 z" />
        <path
           inkscape:connector-curvature="0"
           id="path2219"
           style="font-style:normal;font-variant:normal;font-weight:normal;font-stretch:normal;font-size:7.05555534px;font-family:'Alex Brush';-inkscape-font-specification:'Alex Brush, Normal';font-variant-ligatures:normal;font-variant-caps:normal;font-variant-numeric:normal;font-feature-settings:normal;text-align:start;writing-mode:lr-tb;text-anchor:start"
           d="m 27.845235,2.5689772 q 0,0.2469445 -0.472723,0.8255 -0.557389,0.6843889 -0.9525,0.6843889 h -0.112889 q -0.183444,0 -0.289277,-0.1905 -0.08467,-0.1340556 -0.08467,-0.2963333 0,-0.4233334 0.613833,-1.1853333 0.620889,-0.7690556 1.001889,-0.7690556 0.359834,0 0.359834,0.381 0,0.098778 -0.03528,0.254 0.0071,0.021167 0.134055,0.021167 0.127,0 0.388056,-0.1340556 -0.0071,0.1199445 -0.557389,0.3457222 0.0071,0.028222 0.0071,0.0635 z M 27.386623,2.2020884 q -0.239888,0 -0.684388,0.5644444 -0.437445,0.5644444 -0.437445,0.8325555 0,0.2681111 0.169333,0.2681111 0.303389,0 0.769056,-0.5503333 0.465667,-0.5503333 0.465667,-0.7902222 -0.112889,-0.0635 -0.282223,-0.3245555 z" />
        <path
           inkscape:connector-curvature="0"
           id="path2221"
           style="font-style:normal;font-variant:normal;font-weight:normal;font-stretch:normal;font-size:7.05555534px;font-family:'Alex Brush';-inkscape-font-specification:'Alex Brush, Normal';font-variant-ligatures:normal;font-variant-caps:normal;font-variant-numeric:normal;font-feature-settings:normal;text-align:start;writing-mode:lr-tb;text-anchor:start"
           d="m 29.907221,1.2919217 q 0.211666,0 0.359833,0.1411111 0.148167,0.1411111 0.148167,0.3951111 0,0.5573889 -0.924278,1.397 -0.783167,0.7055555 -1.262945,0.8607777 -0.07761,0 -0.204611,-0.084667 -0.127,-0.084667 -0.127,-0.1552223 0,-0.1552222 0.338667,-1.0512777 0.338667,-0.8960555 0.465667,-1.0018889 0.02822,-0.028222 0.09172,-0.028222 0.0635,0 0.134055,0.070556 0.07056,0.0635 0.07761,0.1552222 0,0.00706 -0.352778,0.8184444 -0.345722,0.8113889 -0.324556,0.9666111 0.303389,-0.091722 1.0795,-0.7408333 0.783167,-0.6491111 0.783167,-1.1641666 0,-0.3104445 -0.310445,-0.4515556 -0.04939,-0.021167 -0.04939,-0.0635 0,-0.0635 0.07761,-0.0635 z" />
        <path
           inkscape:connector-curvature="0"
           id="path2223"
           style="font-style:normal;font-variant:normal;font-weight:normal;font-stretch:normal;font-size:7.05555534px;font-family:'Alex Brush';-inkscape-font-specification:'Alex Brush, Normal';font-variant-ligatures:normal;font-variant-caps:normal;font-variant-numeric:normal;font-feature-settings:normal;text-align:start;writing-mode:lr-tb;text-anchor:start"
           d="m 32.459788,1.9551439 0.09878,-0.021167 q 0.07761,0 0.148167,0.0635 0.07056,0.0635 0.07056,0.098778 0,0.035278 -0.437445,0.6843889 -0.437444,0.6420555 -0.437444,0.8960555 0,0.021167 0.0071,0.042333 0.03528,0.1622777 0.155222,0.1622777 0.366889,0 1.340556,-1.2135555 0.02117,-0.028222 0.04939,-0.028222 0.02822,0 0.02822,0.056444 0,0.049389 -0.0635,0.1340556 -0.903111,1.2064999 -1.375833,1.2064999 -0.0635,0 -0.119945,-0.021167 -0.310444,-0.1199445 -0.310444,-0.4656667 0,-0.1199444 0.02822,-0.2398889 l -0.437444,0.4233334 q -0.416278,0.3668888 -0.606778,0.3668888 -0.183444,0 -0.352778,-0.1199444 -0.1905,-0.1411111 -0.1905,-0.3739444 0,-0.5150556 0.719667,-1.2276667 0.719667,-0.7196666 1.319389,-0.7196666 0.232833,0 0.310444,0.1622778 0.02117,0.056444 0.03528,0.098778 0.01411,0.035278 0.02117,0.035278 z m -2.109611,1.7356666 q 0,0.254 0.176388,0.254 0.409223,0 1.114778,-0.8960555 l 0.747889,-1.0301111 q -0.05644,-0.098778 -0.183444,-0.098778 -0.430389,0 -1.143,0.6702778 -0.712611,0.6632222 -0.712611,1.1006668 z" />
      </g>
      <g
         id="text2047-4"
         style="font-style:normal;font-variant:normal;font-weight:normal;font-stretch:normal;font-size:6.3499999px;line-height:1.25;font-family:'Alex Brush';-inkscape-font-specification:'Alex Brush, Normal';font-variant-ligatures:normal;font-variant-caps:normal;font-variant-numeric:normal;font-feature-settings:normal;text-align:start;letter-spacing:0px;word-spacing:0px;writing-mode:lr-tb;text-anchor:start;fill:#000000;fill-opacity:1;stroke:none;stroke-width:0.26458332"
         aria-label=" Anna
">
        <path
           inkscape:connector-curvature="0"
           id="path2226"
           style="stroke-width:0.26458332"
           d="m 5.7564313,2.3101408 0.61595,-0.0127 q 0.2286,0 0.2286,0.03175 0,0.08255 -0.9271,0.14605 -0.59055,1.1556999 -0.59055,1.5747999 0,0.2921 0.18415,0.2921 0.06985,0 0.17145,-0.0889 0.10795,-0.08255 0.127,-0.08255 0.0254,0 0.0254,0.03175 -0.03175,0.1143 -0.19685,0.1905 -0.15875,0.0762 -0.27305,0.0762 -0.10795,0 -0.17145,-0.0127 -0.1524,-0.05715 -0.1524,-0.3683 0,-0.64135 0.48895,-1.6319499 l -0.762,0.01905 q -0.8509,0.8318499 -1.70815,1.4604999 -1.2827,0.93345 -2.00659996,0.93345 -0.04445,0 -0.0889,-0.00635 -0.97789998,-0.08255 -0.97789998,-1.0033 0,-0.5461 0.34289999,-1.1556999 0.45719999,-0.8128 1.25094995,-1.3843 0.79375,-0.57785002 1.4224,-0.57785002 0.62865,0 0.62865,0.46355002 0,0.31115 -0.1905,0.69215 -0.1905,0.381 -0.38735,0.4826 -0.01905,0.00635 -0.04445,0.00635 -0.01905,0 -0.01905,-0.0127 l 0.20955,-0.3429 q 0.2159,-0.33655 0.2159,-0.59055 0,-0.254 -0.1143,-0.4064 -0.10795,-0.15875002 -0.34925,-0.15875002 -0.4953,0 -1.18745,0.55245002 -0.68579996,0.55245 -1.04774996,1.3589 -0.35559999,0.8064499 -0.35559999,1.2572999 0,0.67945 0.69214999,0.67945 0.66039996,0 1.79069996,-0.8509 0.50165,-0.37465 1.63195,-1.4160499 -0.22225,0.0127 -0.41275,0.04445 -0.4064,0.0762 -0.381,-0.0254 0.0254,-0.23495 0.2413,-0.23495 0.4191,0.0508 0.70485,0.0508 0.5461,-0.50165 1.63195,-1.64465002 0.73025,-0.76834999 0.8889999,-0.76834999 0.06985,0 0.06985,0.10795 0,0.10795 -0.05715,0.33655 -0.05715,0.22859999 -0.127,0.27939999 -0.1460499,0.1016 -0.2730499,0.2794 -0.127,0.17145002 -0.36195,0.65405002 -0.23495,0.47625 -0.40005,0.7747 z m 0.508,-1.54940002 -1.6256,1.52400002 h 0.37465 q 0.13335,0.00635 0.3302,0.00635 0.18415,-0.36195 0.92075,-1.53035002 z" />
        <path
           inkscape:connector-curvature="0"
           id="path2228"
           style="stroke-width:0.26458332"
           d="m 7.2457044,2.1196408 q 0.17145,0 0.17145,0.13335 0,0.0381 -0.01905,0.0762 -0.5715,0.7937499 -0.6857999,1.2001499 1.4795499,-1.4795499 1.7970499,-1.4795499 0.03175,-0.00635 0.05715,-0.00635 0.1778,0 0.1778,0.15875 0,0.03175 -0.0127,0.0635 -0.0127,0.03175 -0.254,0.3429 -0.2794,0.3301999 -0.47625,0.6349999 -0.1905,0.3048 -0.1905,0.508 0,0.2032 0.0889,0.2032 0.2794,0 0.97155,-0.76835 0.0127,-0.0127 0.04445,-0.05715 0.09525,-0.1143 0.1143,-0.1143 0.01905,0 0.01905,0.0635 0,0.0635 -0.0889,0.1651 -0.7874,0.89535 -1.1176,0.89535 -0.31115,0 -0.31115,-0.3429 0,-0.3429 0.254,-0.7874 l 0.4064,-0.6603999 q -0.4318,0.3175 -0.76835,0.6984999 -0.33655,0.37465 -0.6159499,0.73025 -0.27305,0.3556 -0.3175,0.3556 -0.09525,0 -0.1524,-0.0762 -0.0508,-0.08255 -0.0508,-0.19685 0,-0.12065 0.08255,-0.3175 0.08255,-0.19685 0.20955,-0.47625 l -0.381,0.40005 q -0.1397,0.1397 -0.17145,0.1397 -0.0381,0 -0.0381,-0.0381 0,-0.04445 0.0508,-0.09525 0.23495,-0.23495 0.4064,-0.45085 0.1651,-0.2158999 0.6794499,-0.8254999 0.05715,-0.0762 0.12065,-0.0762 z" />
        <path
           inkscape:connector-curvature="0"
           id="path2230"
           style="stroke-width:0.26458332"
           d="m 9.8005874,2.1196408 q 0.17145,0 0.17145,0.13335 0,0.0381 -0.01905,0.0762 -0.5714999,0.7937499 -0.6857999,1.2001499 1.4795495,-1.4795499 1.7970495,-1.4795499 0.03175,-0.00635 0.05715,-0.00635 0.1778,0 0.1778,0.15875 0,0.03175 -0.0127,0.0635 -0.0127,0.03175 -0.254,0.3429 -0.2794,0.3301999 -0.47625,0.6349999 -0.1905,0.3048 -0.1905,0.508 0,0.2032 0.0889,0.2032 0.2794,0 0.97155,-0.76835 0.0127,-0.0127 0.04445,-0.05715 0.09525,-0.1143 0.1143,-0.1143 0.01905,0 0.01905,0.0635 0,0.0635 -0.0889,0.1651 -0.7874,0.89535 -1.1176,0.89535 -0.31115,0 -0.31115,-0.3429 0,-0.3429 0.254,-0.7874 l 0.4064,-0.6603999 q -0.4318,0.3175 -0.7683496,0.6984999 -0.33655,0.37465 -0.6159499,0.73025 -0.27305,0.3556 -0.3175,0.3556 -0.09525,0 -0.1524,-0.0762 -0.0508,-0.08255 -0.0508,-0.19685 0,-0.12065 0.08255,-0.3175 0.08255,-0.19685 0.20955,-0.47625 l -0.381,0.40005 q -0.1397,0.1397 -0.17145,0.1397 -0.0381,0 -0.0381,-0.0381 0,-0.04445 0.0508,-0.09525 0.23495,-0.23495 0.4064,-0.45085 0.1651,-0.2158999 0.6794499,-0.8254999 0.05715,-0.0762 0.12065,-0.0762 z" />
        <path
           inkscape:connector-curvature="0"
           id="path2232"
           style="stroke-width:0.26458332"
           d="m 13.44767,2.2275908 0.0889,-0.01905 q 0.06985,0 0.13335,0.05715 0.0635,0.05715 0.0635,0.0889 0,0.03175 -0.3937,0.6159499 -0.3937,0.57785 -0.3937,0.80645 0,0.01905 0.0063,0.0381 0.03175,0.14605 0.1397,0.14605 0.3302,0 1.2065,-1.0922 0.01905,-0.0254 0.04445,-0.0254 0.0254,0 0.0254,0.0508 0,0.04445 -0.05715,0.12065 -0.8128,1.08585 -1.23825,1.08585 -0.05715,0 -0.10795,-0.01905 -0.2794,-0.10795 -0.2794,-0.4191 0,-0.10795 0.0254,-0.2159 l -0.3937,0.381 q -0.37465,0.3302 -0.5461,0.3302 -0.1651,0 -0.3175,-0.10795 -0.17145,-0.127 -0.17145,-0.33655 0,-0.46355 0.6477,-1.1048999 0.6477,-0.6477 1.18745,-0.6477 0.20955,0 0.2794,0.14605 0.01905,0.0508 0.03175,0.0889 0.0127,0.03175 0.01905,0.03175 z m -1.89865,1.5620999 q 0,0.2286 0.15875,0.2286 0.3683,0 1.0033,-0.80645 l 0.6731,-0.9270999 q -0.0508,-0.0889 -0.1651,-0.0889 -0.38735,0 -1.0287,0.60325 -0.64135,0.5968999 -0.64135,0.9905999 z" />
      </g>
    </g>
    <g
       transform="matrix(1,0,0,0.95266873,2.0688408,-2.1356014)"
       id="text2047-4-4"
       style="font-style:normal;font-variant:normal;font-weight:normal;font-stretch:normal;font-size:6.3499999px;line-height:1.25;font-family:'Alex Brush';-inkscape-font-specification:'Alex Brush, Normal';font-variant-ligatures:normal;font-variant-caps:normal;font-variant-numeric:normal;font-feature-settings:normal;text-align:start;letter-spacing:0px;word-spacing:0px;writing-mode:lr-tb;text-anchor:start;fill:#000000;fill-opacity:0.25285172;stroke:none;stroke-width:0.26458332"
       aria-label=" Anna
">
      <path
         inkscape:connector-curvature="0"
         id="path2130"
         style="fill:#000000;fill-opacity:0.25285172;stroke-width:0.26458332"
         d="m 5.3242459,5.5528485 0.6159499,-0.0127 q 0.2286,0 0.2286,0.03175 0,0.08255 -0.9270999,0.14605 -0.59055,1.1557 -0.59055,1.5748 0,0.2921 0.18415,0.2921 0.06985,0 0.17145,-0.0889 0.10795,-0.08255 0.127,-0.08255 0.0254,0 0.0254,0.03175 -0.03175,0.1143 -0.19685,0.1905 -0.15875,0.0762 -0.27305,0.0762 -0.10795,0 -0.17145,-0.0127 -0.1524,-0.05715 -0.1524,-0.3683 0,-0.64135 0.48895,-1.63195 l -0.762,0.01905 q -0.8509,0.83185 -1.70815,1.4605 -1.2827,0.9334499 -2.00659997,0.9334499 -0.04445,0 -0.0889,-0.00635 -0.97789999,-0.08255 -0.97789999,-1.0032999 0,-0.5461 0.3429,-1.1557 0.45719999,-0.8128 1.25094998,-1.3843 0.79374998,-0.57785 1.42239998,-0.57785 0.62865,0 0.62865,0.46355 0,0.31115 -0.1905,0.69215 -0.1905,0.381 -0.38735,0.4826 -0.01905,0.00635 -0.04445,0.00635 -0.01905,0 -0.01905,-0.0127 l 0.20955,-0.3429 q 0.2159,-0.33655 0.2159,-0.59055 0,-0.254 -0.1143,-0.4064 -0.10795,-0.15875 -0.34925,-0.15875 -0.4953,0 -1.18745,0.55245 -0.68579997,0.55245 -1.04774997,1.3589 -0.35559999,0.80645 -0.35559999,1.2573 0,0.67945 0.69214999,0.67945 0.66039997,0 1.79069997,-0.8509 0.50165,-0.37465 1.63195,-1.41605 -0.22225,0.0127 -0.41275,0.04445 -0.4064,0.0762 -0.381,-0.0254 0.0254,-0.23495 0.2413,-0.23495 0.4191,0.0508 0.70485,0.0508 0.5461,-0.50165 1.6319499,-1.64465 0.73025,-0.76835 0.889,-0.76835 0.06985,0 0.06985,0.10795 0,0.10795 -0.05715,0.33655 -0.05715,0.2286 -0.127,0.2794 -0.14605,0.1016 -0.27305,0.2794 -0.127,0.17145 -0.36195,0.65405 -0.2349499,0.47625 -0.4000499,0.7747 z m 0.5079999,-1.5494 -1.6255999,1.524 h 0.37465 q 0.13335,0.00635 0.3302,0.00635 0.18415,-0.36195 0.9207499,-1.53035 z" />
      <path
         inkscape:connector-curvature="0"
         id="path2132"
         style="fill:#000000;fill-opacity:0.25285172;stroke-width:0.26458332"
         d="m 6.813519,5.3623485 q 0.17145,0 0.17145,0.13335 0,0.0381 -0.01905,0.0762 -0.5715,0.79375 -0.6858,1.20015 1.47955,-1.47955 1.79705,-1.47955 0.03175,-0.00635 0.05715,-0.00635 0.1778,0 0.1778,0.15875 0,0.03175 -0.0127,0.0635 -0.0127,0.03175 -0.254,0.3429 -0.2794,0.3302 -0.47625,0.635 -0.1905,0.3048 -0.1905,0.508 0,0.2032 0.0889,0.2032 0.2794,0 0.97155,-0.76835 0.0127,-0.0127 0.04445,-0.05715 0.09525,-0.1143 0.1143,-0.1143 0.01905,0 0.01905,0.0635 0,0.0635 -0.0889,0.1651 -0.7874,0.89535 -1.1176,0.89535 -0.31115,0 -0.31115,-0.3429 0,-0.3429 0.254,-0.7874 l 0.4064,-0.6604 q -0.4318,0.3175 -0.76835,0.6985 -0.33655,0.37465 -0.61595,0.73025 -0.27305,0.3556 -0.3175,0.3556 -0.09525,0 -0.1524,-0.0762 -0.0508,-0.08255 -0.0508,-0.19685 0,-0.12065 0.08255,-0.3175 0.08255,-0.19685 0.20955,-0.47625 l -0.381,0.40005 q -0.1397,0.1397 -0.1714499,0.1397 -0.0381,0 -0.0381,-0.0381 0,-0.04445 0.0508,-0.09525 0.2349499,-0.23495 0.4063999,-0.45085 0.1651,-0.2159 0.67945,-0.8255 0.05715,-0.0762 0.12065,-0.0762 z" />
      <path
         inkscape:connector-curvature="0"
         id="path2134"
         style="fill:#000000;fill-opacity:0.25285172;stroke-width:0.26458332"
         d="m 9.368402,5.3623485 q 0.17145,0 0.17145,0.13335 0,0.0381 -0.01905,0.0762 -0.5715,0.79375 -0.6858,1.20015 1.47955,-1.47955 1.79705,-1.47955 0.03175,-0.00635 0.05715,-0.00635 0.1778,0 0.1778,0.15875 0,0.03175 -0.0127,0.0635 -0.0127,0.03175 -0.254,0.3429 -0.2794,0.3302 -0.47625,0.635 -0.1905,0.3048 -0.1905,0.508 0,0.2032 0.0889,0.2032 0.2794,0 0.97155,-0.76835 0.0127,-0.0127 0.04445,-0.05715 0.09525,-0.1143 0.1143,-0.1143 0.01905,0 0.01905,0.0635 0,0.0635 -0.0889,0.1651 -0.7874,0.89535 -1.1176,0.89535 -0.31115,0 -0.31115,-0.3429 0,-0.3429 0.254,-0.7874 l 0.4064,-0.6604 q -0.4318,0.3175 -0.76835,0.6985 -0.33655,0.37465 -0.61595,0.73025 -0.27305,0.3556 -0.3175,0.3556 -0.09525,0 -0.1524,-0.0762 -0.0508,-0.08255 -0.0508,-0.19685 0,-0.12065 0.08255,-0.3175 0.08255,-0.19685 0.20955,-0.47625 l -0.3809999,0.40005 q -0.1397,0.1397 -0.17145,0.1397 -0.0381,0 -0.0381,-0.0381 0,-0.04445 0.0508,-0.09525 0.2349499,-0.23495 0.4063999,-0.45085 0.1651,-0.2159 0.67945,-0.8255 0.05715,-0.0762 0.12065,-0.0762 z" />
      <path
         inkscape:connector-curvature="0"
         id="path2136"
         style="fill:#000000;fill-opacity:0.25285172;stroke-width:0.26458332"
         d="m 13.015485,5.4702985 0.0889,-0.01905 q 0.06985,0 0.13335,0.05715 0.0635,0.05715 0.0635,0.0889 0,0.03175 -0.3937,0.61595 -0.3937,0.57785 -0.3937,0.80645 0,0.01905 0.0063,0.0381 0.03175,0.14605 0.1397,0.14605 0.3302,0 1.2065,-1.0922 0.01905,-0.0254 0.04445,-0.0254 0.0254,0 0.0254,0.0508 0,0.04445 -0.05715,0.12065 -0.8128,1.08585 -1.23825,1.08585 -0.05715,0 -0.10795,-0.01905 -0.2794,-0.10795 -0.2794,-0.4191 0,-0.10795 0.0254,-0.2159 l -0.3937,0.381 q -0.37465,0.3302 -0.5461,0.3302 -0.1651,0 -0.3175,-0.10795 -0.17145,-0.127 -0.17145,-0.33655 0,-0.46355 0.6477,-1.1049 0.6477,-0.6477 1.18745,-0.6477 0.20955,0 0.2794,0.14605 0.01905,0.0508 0.03175,0.0889 0.0127,0.03175 0.01905,0.03175 z m -1.89865,1.5621 q 0,0.2286 0.15875,0.2286 0.3683,0 1.0033,-0.80645 l 0.6731,-0.9271 q -0.0508,-0.0889 -0.1651,-0.0889 -0.38735,0 -1.0287,0.60325 -0.64135,0.5969 -0.64135,0.9906 z" />
    </g>
    <g
       transform="translate(1.7367203,-2.3038868)"
       id="text2047-2"
       style="font-style:normal;font-variant:normal;font-weight:normal;font-stretch:normal;font-size:6.3499999px;line-height:1.25;font-family:'Alex Brush';-inkscape-font-specification:'Alex Brush, Normal';font-variant-ligatures:normal;font-variant-caps:normal;font-variant-numeric:normal;font-feature-settings:normal;text-align:start;letter-spacing:0px;word-spacing:0px;writing-mode:lr-tb;text-anchor:start;fill:#000000;fill-opacity:0.28136884;stroke:none;stroke-width:0.26458332"
       aria-label=" Shilova
">
      <path
         inkscape:connector-curvature="0"
         id="path2139"
         style="font-style:normal;font-variant:normal;font-weight:normal;font-stretch:normal;font-size:7.05555534px;font-family:'Alex Brush';-inkscape-font-specification:'Alex Brush, Normal';font-variant-ligatures:normal;font-variant-caps:normal;font-variant-numeric:normal;font-feature-settings:normal;text-align:start;writing-mode:lr-tb;text-anchor:start;fill:#000000;fill-opacity:0.28136884;stroke-width:0.26458332"
         d="m 19.90186,4.2300578 q -0.261055,0.1058333 -0.451555,0.1058333 -0.183445,0 -0.183445,-0.077611 0,-0.049389 0.204611,-0.056444 0.211667,-0.00706 0.303389,-0.049389 0.268111,-0.1411111 0.268111,-0.4162778 0,-0.1411111 -0.07761,-0.2963333 -0.225778,-0.4021666 -1.093611,-0.4021666 -0.500944,0 -1.001889,0.1552222 -0.500944,0.1481666 -0.839611,0.4656666 -0.338666,0.3104445 -0.338666,0.5785556 0,0.4092222 0.811388,0.5997222 l 0.832556,0.1552222 q 0.500944,0.091722 0.747889,0.254 0.324555,0.1975555 0.324555,0.5644444 0,0.1481667 -0.04939,0.3175 -0.225777,0.762 -1.164166,1.1641666 -0.783167,0.3457222 -1.848556,0.3457222 -0.303389,0 -0.529166,-0.028222 0.225777,0.127 0.592666,0.2187222 0.02822,0.00706 0.02822,0.028222 0,0.0635 -0.148167,0.0635 -0.289278,0 -0.719667,-0.3457222 Q 14.984138,7.4826688 14.69486,7.2498355 14.511416,7.1016688 14.356194,6.8123911 14.200971,6.5231133 14.200971,6.29028 q 0,-0.2328334 0.09172,-0.3880556 Q 14.50436,5.52828 14.828916,5.52828 q 0.246944,0 0.289278,0.4162778 0.09878,0.8043333 0.134055,0.9172221 0.105834,0.3457223 0.359834,0.5856111 0.296333,0.0635 0.642055,0.0635 0.762,0 1.495778,-0.3033888 0.733778,-0.3033889 1.058333,-0.8607778 0.134056,-0.2187222 0.134056,-0.3880555 0,-0.3316111 -0.585611,-0.5150556 L 17.114916,5.1613911 q -0.381,-0.091722 -0.613833,-0.3033889 -0.225778,-0.2116666 -0.225778,-0.4868333 0,-0.4233333 0.529166,-0.8466666 0.402167,-0.3245556 0.980723,-0.5009445 0.585611,-0.1834444 1.143,-0.1834444 0.564444,0 0.931333,0.1622778 0.472722,0.2187222 0.472722,0.6420555 0,0.4162778 -0.430389,0.5856111 z M 15.358083,7.3768355 Q 14.94886,6.9252799 14.835971,6.1421133 q -0.0635,-0.4445 -0.119944,-0.4445 -0.05644,0 -0.105833,0.035278 -0.04939,0.028222 -0.09878,0.1340555 -0.04939,0.1058334 -0.04939,0.2751667 0,0.5432778 0.381,0.9313333 0.1905,0.1975556 0.515056,0.3033889 z" />
      <path
         inkscape:connector-curvature="0"
         id="path2141"
         style="font-style:normal;font-variant:normal;font-weight:normal;font-stretch:normal;font-size:7.05555534px;font-family:'Alex Brush';-inkscape-font-specification:'Alex Brush, Normal';font-variant-ligatures:normal;font-variant-caps:normal;font-variant-numeric:normal;font-feature-settings:normal;text-align:start;writing-mode:lr-tb;text-anchor:start;fill:#000000;fill-opacity:0.28136884;stroke-width:0.26458332"
         d="m 21.270968,7.2216133 q -0.416278,0 -0.416278,-0.4868333 0,-0.2751667 0.1905,-0.6067778 0.197556,-0.3386667 0.479778,-0.7902222 -0.903111,0.4515555 -1.636889,1.3335 -0.409222,0.6138333 -0.479777,0.6138333 -0.204611,0 -0.204611,-0.1199445 0,-0.0635 0.08467,-0.2257777 0.684389,-1.2206111 1.037167,-1.7850555 0.839611,-1.3476111 1.185333,-1.4605 0.01411,-0.00706 0.02822,-0.00706 0.09172,0 0.127,0.1481667 -0.02117,0.1481667 -0.733777,1.0724444 -0.740834,0.9383889 -0.839612,1.2276666 0.261056,-0.1904999 0.910167,-0.6420555 0.6985,-0.4868333 0.924278,-0.4868333 0.225778,0 0.225778,0.1763889 0,0.028222 -0.0071,0.042333 0,0.00706 -0.486833,0.6632222 -0.486834,0.6561667 -0.486834,0.9666111 0,0.1622778 0.119945,0.1622778 0.381,-0.014111 1.143,-0.9172222 0.0635,-0.0635 0.09172,-0.0635 0.03528,0 0.03528,0.042333 0,0.1411111 -0.6985,0.762 -0.437445,0.381 -0.592667,0.381 z" />
      <path
         inkscape:connector-curvature="0"
         id="path2143"
         style="font-style:normal;font-variant:normal;font-weight:normal;font-stretch:normal;font-size:7.05555534px;font-family:'Alex Brush';-inkscape-font-specification:'Alex Brush, Normal';font-variant-ligatures:normal;font-variant-caps:normal;font-variant-numeric:normal;font-feature-settings:normal;text-align:start;writing-mode:lr-tb;text-anchor:start;fill:#000000;fill-opacity:0.28136884;stroke-width:0.26458332"
         d="m 23.789471,4.3711689 q 0.105833,0 0.197555,0.070556 0.09878,0.0635 0.09878,0.1552222 0,0.091722 -0.09172,0.1622778 -0.08467,0.0635 -0.1905,0.0635 -0.105833,0 -0.197556,-0.077611 -0.08467,-0.077611 -0.08467,-0.1763888 0,-0.1975556 0.268111,-0.1975562 z m -1.277056,2.9562777 q -0.359833,0 -0.359833,-0.4656667 0,-0.3809999 0.416278,-1.0512777 0.416277,-0.6773333 0.670277,-0.6843889 0.07056,0 0.155223,0.056444 0.09172,0.056444 0.09172,0.1128889 -0.03528,0.049389 -0.08467,0.1128888 -0.04939,0.056445 -0.105833,0.127 -0.05645,0.070556 -0.155222,0.2046111 -0.09878,0.127 -0.1905,0.2469445 -0.529167,0.6843889 -0.529167,0.9454444 0,0.254 0.176389,0.254 0.148167,0 0.402167,-0.1622778 0.592666,-0.3668889 0.938388,-0.8043333 0.127,-0.1622778 0.169334,-0.1622778 0.04939,0 0.04939,0.056445 0,0.056444 -0.162278,0.2257778 -0.162278,0.1693333 -0.261056,0.2681111 -0.09172,0.098778 -0.127,0.1340555 -0.03528,0.028222 -0.134055,0.1199444 -0.09172,0.084667 -0.141111,0.1199445 -0.04939,0.035278 -0.141111,0.1058333 -0.09172,0.070556 -0.162278,0.1058333 -0.07056,0.028222 -0.162278,0.070556 -0.148167,0.0635 -0.352778,0.0635 z" />
      <path
         inkscape:connector-curvature="0"
         id="path2145"
         style="font-style:normal;font-variant:normal;font-weight:normal;font-stretch:normal;font-size:7.05555534px;font-family:'Alex Brush';-inkscape-font-specification:'Alex Brush, Normal';font-variant-ligatures:normal;font-variant-caps:normal;font-variant-numeric:normal;font-feature-settings:normal;text-align:start;writing-mode:lr-tb;text-anchor:start;fill:#000000;fill-opacity:0.28136884;stroke-width:0.26458332"
         d="m 24.132106,6.8970577 q 0,0.2116667 0.232833,0.2116667 0.232834,0 0.599723,-0.2469445 0.366888,-0.2469444 0.712611,-0.6702777 0.08467,-0.1128889 0.134055,-0.1128889 0.04939,0 0.04939,0.042333 0,0.042333 -0.289278,0.3668889 -0.705555,0.7761111 -1.178277,0.7761111 -0.232834,0 -0.395112,-0.1058333 -0.162277,-0.1128889 -0.162277,-0.3386667 0,-0.2328333 0.119944,-0.5362222 0.204611,-0.4797778 0.656167,-1.2065 0.8255,-1.3405555 1.171222,-1.3405555 0.07055,0 0.141111,0.056445 0.07761,0.049389 0.08467,0.1128889 -0.162278,0.2187222 -0.627945,0.839611 -0.458611,0.6208889 -0.635,0.8960556 -0.176389,0.2681111 -0.268111,0.4021666 -0.08467,0.1340556 -0.127,0.2116667 -0.04233,0.070556 -0.09878,0.1905 -0.119944,0.2398889 -0.119944,0.4515555 z" />
      <path
         inkscape:connector-curvature="0"
         id="path2147"
         style="font-style:normal;font-variant:normal;font-weight:normal;font-stretch:normal;font-size:7.05555534px;font-family:'Alex Brush';-inkscape-font-specification:'Alex Brush, Normal';font-variant-ligatures:normal;font-variant-caps:normal;font-variant-numeric:normal;font-feature-settings:normal;text-align:start;writing-mode:lr-tb;text-anchor:start;fill:#000000;fill-opacity:0.28136884;stroke-width:0.26458332"
         d="m 27.407207,5.7540578 q 0,0.2469444 -0.472722,0.8254999 -0.557389,0.6843889 -0.9525,0.6843889 h -0.112889 q -0.183444,0 -0.289278,-0.1905 -0.08467,-0.1340555 -0.08467,-0.2963333 0,-0.4233333 0.613833,-1.1853333 0.620889,-0.7690555 1.001889,-0.7690555 0.359833,0 0.359833,0.3809999 0,0.098778 -0.03528,0.254 0.0071,0.021167 0.134056,0.021167 0.127,0 0.388055,-0.1340556 -0.0071,0.1199445 -0.557388,0.3457223 0.0071,0.028222 0.0071,0.0635 z M 26.948596,5.3871689 q -0.239889,0 -0.684389,0.5644444 -0.437444,0.5644444 -0.437444,0.8325555 0,0.2681111 0.169333,0.2681111 0.303389,0 0.769056,-0.5503333 0.465666,-0.5503333 0.465666,-0.7902222 -0.112889,-0.0635 -0.282222,-0.3245555 z" />
      <path
         inkscape:connector-curvature="0"
         id="path2149"
         style="font-style:normal;font-variant:normal;font-weight:normal;font-stretch:normal;font-size:7.05555534px;font-family:'Alex Brush';-inkscape-font-specification:'Alex Brush, Normal';font-variant-ligatures:normal;font-variant-caps:normal;font-variant-numeric:normal;font-feature-settings:normal;text-align:start;writing-mode:lr-tb;text-anchor:start;fill:#000000;fill-opacity:0.28136884;stroke-width:0.26458332"
         d="m 29.469193,4.4770022 q 0.211667,0 0.359834,0.1411111 0.148166,0.1411112 0.148166,0.3951111 0,0.5573889 -0.924278,1.397 -0.783166,0.7055555 -1.262944,0.8607778 -0.07761,0 -0.204611,-0.084667 -0.127,-0.084667 -0.127,-0.1552222 0,-0.1552222 0.338667,-1.0512778 0.338666,-0.8960555 0.465666,-1.0018888 0.02822,-0.028222 0.09172,-0.028222 0.0635,0 0.134055,0.070556 0.07056,0.0635 0.07761,0.1552222 0,0.00706 -0.352778,0.8184444 -0.345722,0.8113889 -0.324555,0.9666111 0.303389,-0.091722 1.0795,-0.7408333 0.783166,-0.6491111 0.783166,-1.1641666 0,-0.3104445 -0.310444,-0.4515556 -0.04939,-0.021167 -0.04939,-0.0635 0,-0.0635 0.07761,-0.0635 z" />
      <path
         inkscape:connector-curvature="0"
         id="path2151"
         style="font-style:normal;font-variant:normal;font-weight:normal;font-stretch:normal;font-size:7.05555534px;font-family:'Alex Brush';-inkscape-font-specification:'Alex Brush, Normal';font-variant-ligatures:normal;font-variant-caps:normal;font-variant-numeric:normal;font-feature-settings:normal;text-align:start;writing-mode:lr-tb;text-anchor:start;fill:#000000;fill-opacity:0.28136884;stroke-width:0.26458332"
         d="m 32.02176,5.1402244 0.09878,-0.021167 q 0.07761,0 0.148167,0.0635 0.07056,0.0635 0.07056,0.098778 0,0.035278 -0.437444,0.6843888 -0.437445,0.6420556 -0.437445,0.8960555 0,0.021167 0.0071,0.042333 0.03528,0.1622778 0.155222,0.1622778 0.366889,0 1.340556,-1.2135556 0.02117,-0.028222 0.04939,-0.028222 0.02822,0 0.02822,0.056444 0,0.049389 -0.0635,0.1340555 -0.903111,1.2065 -1.375834,1.2065 -0.0635,0 -0.119944,-0.021167 -0.310444,-0.1199444 -0.310444,-0.4656666 0,-0.1199445 0.02822,-0.2398889 l -0.437445,0.4233333 q -0.416277,0.3668889 -0.606777,0.3668889 -0.183445,0 -0.352778,-0.1199445 -0.1905,-0.1411111 -0.1905,-0.3739444 0,-0.5150555 0.719666,-1.2276666 0.719667,-0.7196667 1.319389,-0.7196667 0.232834,0 0.310445,0.1622778 0.02117,0.056444 0.03528,0.098778 0.01411,0.035278 0.02117,0.035278 z m -2.109611,1.7356667 q 0,0.254 0.176389,0.254 0.409222,0 1.114778,-0.8960556 l 0.747889,-1.0301111 q -0.05645,-0.098778 -0.183445,-0.098778 -0.430389,0 -1.143,0.6702777 -0.712611,0.6632222 -0.712611,1.100667 z" />
    </g>
  </g>
</svg>
