<?xml version="1.0" encoding="UTF-8" standalone="no"?>
<!-- Created with Inkscape (http://www.inkscape.org/) -->

<svg
   xmlns:dc="http://purl.org/dc/elements/1.1/"
   xmlns:cc="http://creativecommons.org/ns#"
   xmlns:rdf="http://www.w3.org/1999/02/22-rdf-syntax-ns#"
   xmlns:svg="http://www.w3.org/2000/svg"
   xmlns="http://www.w3.org/2000/svg"
   xmlns:sodipodi="http://sodipodi.sourceforge.net/DTD/sodipodi-0.dtd"
   xmlns:inkscape="http://www.inkscape.org/namespaces/inkscape"
   width="225.96124"
   height="29.720163"
   viewBox="0 0 59.785578 7.8634597"
   version="1.1"
   id="svg8"
   inkscape:version="0.92.4 (5da689c313, 2019-01-14)"
   sodipodi:docname="w.svg">
  <defs
     id="defs2" />
  <sodipodi:namedview
     id="base"
     pagecolor="#ffffff"
     bordercolor="#666666"
     borderopacity="1.0"
     inkscape:pageopacity="0.0"
     inkscape:pageshadow="2"
     inkscape:zoom="5.6"
     inkscape:cx="131.19553"
     inkscape:cy="-43.416843"
     inkscape:document-units="mm"
     inkscape:current-layer="g3884"
     showgrid="false"
     inkscape:window-width="1920"
     inkscape:window-height="1053"
     inkscape:window-x="1911"
     inkscape:window-y="-9"
     inkscape:window-maximized="1"
     showborder="false"
     units="px"
     inkscape:pagecheckerboard="true"
     fit-margin-top="0"
     fit-margin-left="0"
     fit-margin-right="0"
     fit-margin-bottom="0" />
  <metadata
     id="metadata5">
    <rdf:RDF>
      <cc:Work
         rdf:about="">
        <dc:format>image/svg+xml</dc:format>
        <dc:type
           rdf:resource="http://purl.org/dc/dcmitype/StillImage" />
        <dc:title></dc:title>
      </cc:Work>
    </rdf:RDF>
  </metadata>
  <flowRoot
     xml:space="preserve"
     id="flowRoot3820"
     style="font-style:normal;font-variant:normal;font-weight:normal;font-stretch:normal;font-size:10.58333302px;line-height:1.25;font-family:'Brush Script Std';-inkscape-font-specification:'Brush Script Std';letter-spacing:0px;word-spacing:0px;fill:#000000;fill-opacity:1;stroke:none;stroke-width:0.26458332"
     transform="translate(59.264401,272.07449)"><flowRegion
       id="flowRegion3822"
       style="stroke-width:0.26458332"><rect
         id="rect3824"
         width="173.86905"
         height="18.142857"
         x="23.434523"
         y="20.321428"
         style="stroke-width:0.07000434" /></flowRegion><flowPara
       id="flowPara3826"
       style="stroke-width:0.26458332"></flowPara></flowRoot>  <flowRoot
     xml:space="preserve"
     id="flowRoot3828"
     style="font-style:normal;font-variant:normal;font-weight:normal;font-stretch:normal;font-size:10.58333302px;line-height:1.25;font-family:'Brush Script Std';-inkscape-font-specification:'Brush Script Std';letter-spacing:0px;word-spacing:0px;fill:#000000;fill-opacity:1;stroke:none;stroke-width:0.26458332"
     transform="translate(59.264401,272.07449)"><flowRegion
       id="flowRegion3830"
       style="stroke-width:0.26458332"><rect
         id="rect3832"
         width="170.84525"
         height="46.869045"
         x="21.166666"
         y="5.2023811"
         style="stroke-width:0.07000434" /></flowRegion><flowPara
       id="flowPara3834"
       style="stroke-width:0.26458332"></flowPara></flowRoot>  <flowRoot
     xml:space="preserve"
     id="flowRoot3836"
     style="font-style:normal;font-variant:normal;font-weight:normal;font-stretch:normal;font-size:10.58333302px;line-height:1.25;font-family:'Brush Script Std';-inkscape-font-specification:'Brush Script Std';letter-spacing:0px;word-spacing:0px;fill:#000000;fill-opacity:1;stroke:none;stroke-width:0.26458332"
     transform="translate(59.264401,272.07449)"><flowRegion
       id="flowRegion3838"
       style="stroke-width:0.26458332"><rect
         id="rect3840"
         width="98.265251"
         height="24.769838"
         x="24.946428"
         y="7.4702382"
         style="stroke-width:0.07000434" /></flowRegion><flowPara
       id="flowPara3842"
       style="stroke-width:0.26458332"></flowPara></flowRoot>  <g
     id="g3884"
     style="fill:#0000ff"
     transform="translate(50.240219,257.94763)">
    <path
       inkscape:connector-curvature="0"
       id="text3860"
       d="m 40.658499,11.768864 c -1.39065,0 -2.539934,0.603226 -2.736784,0.927076 -0.1016,0.17145 -0.203089,0.634842 -0.203089,0.844392 0,0.381 0.330523,0.482501 0.648023,0.533301 0.3048,0.0508 2.063441,0.305052 2.063441,0.628902 0,0.1016 -0.622279,0.755378 -2.889229,0.672828 v -0.0124 c 0.0381,-0.0381 0.0699,-0.0702 0.108003,-0.0956 0.04445,-0.0254 0.108003,-0.05691 0.108003,-0.120406 0,-0.0381 -0.01889,-0.04444 -0.05064,-0.04444 -0.09525,0 -0.470019,0.120468 -0.546219,0.183968 -0.1016,0.09525 -0.324011,0.43199 -0.324011,0.56534 0,0.3683 0.774509,0.368453 1.022159,0.368453 0.9144,0 3.130558,-0.203444 3.130558,-1.467094 0,-0.31115 -0.298127,-0.647551 -0.939477,-0.799951 -1.77165,-0.41275 -1.689304,-0.45732 -1.689304,-0.54622 0.0063,-0.14605 0.711428,-0.7366 2.349728,-0.79375 l 0.0124,0.01292 c -0.3429,0.23495 -0.46354,0.431718 -0.46354,0.444418 0,0.0635 0.0383,0.09508 0.101804,0.09508 0.0508,0 0.114197,-0.03816 0.158647,-0.06356 0.24765,-0.1778 0.298489,-0.209492 0.571539,-0.311092 0.37465,-0.14605 0.533303,-0.254087 0.533303,-0.723987 0,-0.127 -0.0188,-0.177539 -0.164849,-0.209289 -0.2667,-0.05715 -0.533768,-0.08888 -0.800468,-0.08888 z m -14.91175,0.0062 c -0.28575,0 -1.047883,0.578089 -1.670183,1.092439 l -1.422135,1.180807 c -0.0254,0 -0.285973,0.01277 -0.387573,0.01912 -0.03175,0 -0.08888,-0.01291 -0.08888,-0.05736 0,-0.1143 0.463538,-0.05675 0.463538,-0.171049 0,-0.0889 -0.343012,-0.03811 -0.590662,0.04444 -0.33655,0.10795 -0.799951,0.64106 -0.799951,0.76171 0,0.1651 0.209583,0.139825 0.615983,0.127125 l -0.49506,0.546219 c -0.5969,0.20955 -1.086239,0.818811 -1.086239,1.028361 0,0.12065 0.126959,0.140044 0.222209,0.140044 0.2286,0 0.470301,-0.266696 0.622701,-0.419096 l 1.301729,-1.295528 1.383895,-0.04444 c -0.5588,1.0287 -0.463537,1.022519 -0.463537,1.073319 0,0.2032 0.09541,0.380856 0.324011,0.380856 0.45085,0 0.990728,-0.514272 1.295528,-0.819072 l -0.114205,-0.165364 c -0.37465,0.2794 -0.444839,0.349332 -0.559139,0.349332 -0.0635,0 -0.114205,-0.0383 -0.114205,-0.101802 l 0.399976,-0.780831 0.507979,-0.02532 c 0.1397,-0.254 0.292307,-0.508086 0.476457,-0.723986 -0.40005,-0.0889 -0.114561,-0.02532 -0.584461,-0.02532 l 0.787549,-1.37821 c 0.0635,-0.1143 0.196887,-0.330188 0.196887,-0.463538 0,-0.1143 -0.08886,-0.272851 -0.222208,-0.272851 z m 18.130676,0.203088 c -0.2159,0 -1.479505,1.111477 -2.228805,2.349727 -0.22225,0.36195 -0.387572,0.666692 -0.387572,1.104842 0,0.14605 0.032,0.641305 0.254246,0.641305 0.2032,0 0.520771,-0.672984 1.606621,-1.415934 l 0.0124,0.0124 c -0.2286,0.29845 -0.666626,0.781273 -0.666626,1.181323 0,0.17145 0.101473,0.336414 0.291973,0.336414 0.312883,0 0.94542,-0.486528 1.287259,-0.750342 -2.04e-4,0.0088 -0.0016,0.01754 -0.0016,0.02635 0,0.32385 0.171053,0.756026 0.545703,0.756026 0.451506,0 0.961488,-0.495484 1.260391,-0.845943 0.002,0.372376 0.105359,0.813904 0.564306,0.813904 0.468002,0 0.964006,-0.463254 1.318781,-0.82579 0.057,0.509179 0.340024,0.800468 0.648538,0.800468 0.40005,0 0.711021,-0.203406 0.977721,-0.476456 0.396573,0 0.658039,-0.112685 0.904337,-0.371554 0.02989,0.449189 0.272003,0.867131 0.6227,0.867131 0.24765,0 0.889317,-0.559028 1.067117,-0.762228 0.10795,0.0762 0.196864,0.165365 0.330214,0.165365 0.218466,0 0.38863,-0.07965 0.541051,-0.195854 0.02604,0.326919 0.381757,0.729155 0.556041,0.729155 0.14605,0 0.552175,-0.330047 0.672825,-0.425297 l 0.584462,-0.470256 0.0124,0.01292 c -0.08255,0.17145 -0.234612,0.507868 -0.234609,0.711068 0,0.18415 0.09534,0.33693 0.30489,0.33693 0.31115,0 1.162005,-0.679487 1.435055,-0.990637 l -0.05116,-0.235128 c -0.27305,0.18415 -0.635056,0.50798 -0.901756,0.50798 -0.1016,0 -0.196368,-0.0445 -0.196368,-0.152446 0,-0.29845 0.552421,-0.742995 0.552421,-0.946195 0,-0.1397 -0.06384,-0.20965 -0.184486,-0.26045 0.05715,-0.01905 0.22221,-0.08245 0.22221,-0.158646 0,-0.0762 -0.120279,-0.311241 -0.412379,-0.304891 -0.594707,0.01538 -1.784813,0.548566 -2.208133,1.170988 -0.140097,0.09319 -0.322885,0.207222 -0.464056,0.207222 -0.1016,0 -0.146156,-0.01918 -0.216006,-0.08268 0.15875,-0.22225 0.527098,-0.81932 0.527098,-1.07332 0,-0.127 -0.06368,-0.209289 -0.190685,-0.209289 -0.22225,0 -0.501534,0.36835 -0.622184,0.5271 -0.17145,0.2159 -0.342693,0.457208 -0.317293,0.749308 -0.13335,0.127 -0.634921,0.590661 -0.819071,0.590661 -0.127,0 -0.152448,-0.146446 -0.152448,-0.248046 0,-0.1016 0.06334,-0.273055 0.09509,-0.374655 0.2286,-0.1905 0.825789,-0.831494 0.825789,-1.117244 0,-0.13335 -0.292471,-0.146244 -0.381371,-0.146244 -0.197069,0 -0.831903,0.479885 -0.973584,1.19941 -0.18247,0.146633 -0.355452,0.352965 -0.617017,0.305407 0.12065,-0.24765 0.248047,-0.469908 0.248047,-0.749308 0,-0.1905 -0.03843,-0.323854 -0.228928,-0.374654 0.06985,-0.0381 0.146246,-0.0758 0.146246,-0.171049 0,-0.17145 -0.209632,-0.235277 -0.349332,-0.228927 -0.38735,0.01905 -0.844627,0.190339 -1.187527,0.469739 -0.307207,0.235893 -0.523213,0.505656 -0.568439,0.8816 -0.267242,0.232667 -0.689207,0.560173 -1.005107,0.560173 -0.17145,0 -0.260143,-0.127319 -0.317293,-0.273369 -0.03175,-0.1524 -0.01271,-0.329749 0.04444,-0.437699 1.37795,-1.3335 1.54305,-1.892722 1.5875,-2.495972 0.0064,-0.08255 -0.01917,-0.234611 -0.127125,-0.234611 -0.2032,0 -0.806492,0.590459 -1.365292,1.282609 -0.355899,0.438031 -0.616334,1.031649 -0.681612,1.614372 l -0.0062,-0.02687 c -0.254,0.18415 -0.584322,0.520899 -0.920872,0.520899 -0.2921,0 -0.387215,-0.140143 -0.336415,-0.400493 0.2667,-0.18415 0.895554,-0.749101 0.895554,-1.066601 0,-0.1397 -0.17162,-0.177767 -0.27957,-0.177767 -0.321947,0 -0.936918,0.539924 -1.120346,1.174605 -0.199028,0.133383 -0.619088,0.438216 -0.819071,0.438216 -0.0762,0 -0.139528,-0.05077 -0.139528,-0.133325 0,-0.0635 -0.01904,-0.08237 0.374656,-0.558622 0.0762,-0.0889 0.330213,-0.368209 0.330213,-0.488859 0,-0.14605 -0.152493,-0.304891 -0.304893,-0.304891 -0.34925,0 -1.504759,1.015839 -1.815909,1.263489 v -0.24753 c 0.4064,-0.40005 2.425692,-2.49567 2.425692,-2.92747 0,-0.127 -0.171768,-0.171566 -0.273368,-0.171566 z m -18.740458,0.476457 0.01292,0.0124 -0.863513,1.447974 -0.971517,0.06976 -0.01292,-0.0124 z m 22.415685,0.488859 c -0.1143,0.36195 -0.508265,0.971512 -0.959115,1.390612 l -0.0124,-0.0124 c 0.29845,-0.65405 0.660366,-1.22581 0.971516,-1.37821 z m -1.69137,0.101802 c -0.24765,0 -0.552421,0.228509 -0.552421,0.488859 0,0.1524 0.101333,0.272852 0.253733,0.272852 0.27305,0 0.507978,-0.310824 0.507978,-0.564824 0,-0.1143 -0.09499,-0.196887 -0.20929,-0.196887 z m -12.14396,0.698149 c -0.61105,0.0158 -1.84858,0.578409 -2.239139,1.222664 l -0.262517,0.219108 c -0.1143,0.09525 -0.393819,0.317294 -0.546219,0.317294 -0.0635,0 -0.114205,-0.05706 -0.114205,-0.114205 0,-0.43815 0.78083,-0.920755 0.78083,-1.168405 -0.01905,-0.133349 -0.05699,-0.247881 -0.09509,-0.343131 -0.0381,-0.0889 -0.0764,-0.120406 -0.101801,-0.120406 -0.18415,0 -1.352351,0.781153 -1.860351,1.428853 -0.0254,0.03175 -0.08267,0.08888 -0.127125,0.08888 -0.0381,0 -0.06976,-0.03166 -0.06976,-0.06976 0,-0.1524 0.799949,-0.794147 0.799949,-1.041797 0,-0.0381 0.03218,-0.126827 -0.348816,-0.139527 -0.10795,0 -0.165497,0.0061 -0.248047,0.07597 -0.224957,0.190049 -0.460253,0.503674 -0.606163,0.818554 l -0.0093,-0.05013 -0.380854,0.31781 c -0.1143,0.09525 -0.39382,0.317294 -0.54622,0.317294 -0.0635,0 -0.114204,-0.05706 -0.114204,-0.114205 0,-0.43815 0.78083,-0.920755 0.78083,-1.168405 -0.01905,-0.133349 -0.05699,-0.247881 -0.09509,-0.343131 -0.0381,-0.0889 -0.0764,-0.120406 -0.101801,-0.120406 -0.18415,0 -1.352351,0.781153 -1.860353,1.428853 -0.0254,0.03175 -0.08267,0.08888 -0.127123,0.08888 -0.0381,0 -0.06976,-0.03166 -0.06976,-0.06976 0,-0.1524 0.799951,-0.794147 0.799951,-1.041797 0,-0.0381 0.03218,-0.126827 -0.348815,-0.139527 -0.10795,0 -0.165497,0.0061 -0.248047,0.07597 -0.3683,0.31115 -0.768358,0.952979 -0.749309,1.391129 0.0064,0.2159 0.07613,0.615467 0.355534,0.615467 0.17145,0 0.406529,-0.310849 0.501779,-0.431499 0.285749,-0.3683 0.609934,-0.698467 0.978234,-0.971517 l 0.0124,0.0124 c -0.2032,0.2921 -0.546221,0.71144 -0.546221,1.092439 0,0.2159 0.114752,0.419096 0.356052,0.419096 0.3981,0 0.924758,-0.561408 1.282091,-0.913122 -0.01026,0.06134 -0.01534,0.120887 -0.01292,0.176733 0.0064,0.2159 0.07613,0.615467 0.355534,0.615467 0.17145,0 0.406529,-0.310849 0.501779,-0.431499 0.28575,-0.3683 0.609934,-0.698467 0.978234,-0.971517 l 0.0124,0.0124 c -0.2032,0.2921 -0.546221,0.71144 -0.546221,1.092439 0,0.2159 0.114752,0.419096 0.356052,0.419096 0.355269,0 0.819581,-0.455398 1.169953,-0.804085 0.04591,0.320414 0.381863,0.696082 0.550355,0.696082 0.14605,0 0.552177,-0.330047 0.672827,-0.425297 l 0.584459,-0.470256 0.0124,0.01292 c -0.08255,0.17145 -0.234611,0.507868 -0.234611,0.711068 0,0.18415 0.09534,0.33693 0.30489,0.33693 0.31115,0 1.162005,-0.679487 1.435055,-0.990637 l -0.05116,-0.235128 c -0.27305,0.18415 -0.635053,0.50798 -0.901753,0.50798 -0.1016,0 -0.196371,-0.0445 -0.196371,-0.152446 0,-0.29845 0.552421,-0.742995 0.552421,-0.946195 0,-0.1397 -0.06383,-0.20965 -0.184484,-0.26045 0.05715,-0.01905 0.222208,-0.08245 0.222208,-0.158646 0,-0.0762 -0.120277,-0.311241 -0.412377,-0.304891 z m -0.203605,0.622701 0.01292,0.0124 c -1.2573,1.27 -1.454298,1.251008 -1.581298,1.276408 -0.09525,0.01905 -0.120774,-0.09537 -0.127124,-0.127124 0,-0.31115 0.184205,-0.698136 1.695505,-1.161686 z m 21.468456,0 0.01292,0.0124 c -1.2573,1.27 -1.454298,1.251008 -1.581298,1.276408 -0.09525,0.01905 -0.120774,-0.09537 -0.127124,-0.127124 0,-0.31115 0.184203,-0.698136 1.695503,-1.161686 z m -5.82445,0.04444 c 0.0254,0.0127 -0.272852,0.41239 -0.272852,0.74259 0,0.10795 0.03152,0.190372 0.07597,0.291972 -0.14605,0.13335 -0.27931,0.254248 -0.48886,0.254248 -0.15875,0 -0.27957,-0.05718 -0.27957,-0.241329 0,-0.19685 0.120751,-0.444244 0.260451,-0.583944 0.1905,-0.18415 0.488966,-0.336537 0.704866,-0.463537 z"
       style="font-style:normal;font-variant:normal;font-weight:normal;font-stretch:normal;font-size:10.58333302px;line-height:1.25;font-family:'Brush Script Std';-inkscape-font-specification:'Brush Script Std';letter-spacing:0px;word-spacing:0px;fill:#0000ff;fill-opacity:1;stroke:none;stroke-width:0.26458332" />
    <g
       aria-label="Anna Shilova
"
       style="font-style:normal;font-variant:normal;font-weight:normal;font-stretch:normal;font-size:10.58333302px;line-height:1.25;font-family:'Brush Script Std';-inkscape-font-specification:'Brush Script Std';letter-spacing:0px;word-spacing:0px;fill:#ffffff;fill-opacity:1;stroke:none;stroke-width:0.26458332"
       id="text3888">
      <path
         d="m -43.57272,-254.3705 -1.61925,0.11642 -0.02117,-0.0212 3.058583,-2.52942 0.02117,0.0212 z m 0.497417,1.24883 0.846667,-0.0423 c 0.232833,-0.42333 0.486833,-0.84667 0.79375,-1.2065 -0.66675,-0.14817 -0.1905,-0.0423 -0.973667,-0.0423 l 1.312333,-2.29659 c 0.105834,-0.1905 0.328084,-0.55033 0.328084,-0.77258 0,-0.1905 -0.148167,-0.45508 -0.370417,-0.45508 -0.47625,0 -1.74625,0.96308 -2.783417,1.82033 l -2.370666,1.9685 c -0.04233,0 -0.47625,0.0212 -0.645584,0.0317 -0.05292,0 -0.148166,-0.0212 -0.148166,-0.0952 0,-0.1905 0.772583,-0.0952 0.772583,-0.28575 0,-0.14817 -0.5715,-0.0635 -0.98425,0.0741 -0.560916,0.17992 -1.3335,1.06892 -1.3335,1.27 0,0.27517 0.34925,0.23284 1.026584,0.21167 l -0.8255,0.91017 c -0.994834,0.34925 -1.80975,1.36525 -1.80975,1.7145 0,0.20108 0.211666,0.23283 0.370416,0.23283 0.381,0 0.783167,-0.4445 1.037167,-0.6985 l 2.169583,-2.159 2.307167,-0.0741 c -0.931334,1.7145 -0.772584,1.70391 -0.772584,1.78858 0,0.33867 0.15875,0.635 0.53975,0.635 0.751417,0 1.651,-0.85725 2.159,-1.36525 l -0.1905,-0.27517 c -0.624416,0.46567 -0.740833,0.58209 -0.931333,0.58209 -0.105833,0 -0.1905,-0.0635 -0.1905,-0.16934 z"
         style="fill:#ffffff;stroke-width:0.26458332"
         id="path3892"
         inkscape:connector-curvature="0" />
      <path
         d="m -36.902078,-252.25383 c -0.1905,0.15875 -0.656166,0.52916 -0.910166,0.52916 -0.105834,0 -0.1905,-0.0952 -0.1905,-0.1905 0,-0.73025 1.30175,-1.53458 1.30175,-1.94733 -0.03175,-0.22225 -0.09525,-0.41275 -0.15875,-0.5715 -0.0635,-0.14817 -0.127,-0.20108 -0.169334,-0.20108 -0.306916,0 -2.25425,1.30175 -3.100916,2.38125 -0.04233,0.0529 -0.137584,0.14816 -0.211667,0.14816 -0.0635,0 -0.116417,-0.0529 -0.116417,-0.11641 0,-0.254 1.3335,-1.32292 1.3335,-1.73567 0,-0.0635 0.05292,-0.21167 -0.582083,-0.23283 -0.179917,0 -0.275167,0.0106 -0.41275,0.127 -0.613833,0.51858 -1.280583,1.5875 -1.248833,2.31775 0.01058,0.35983 0.127,1.02658 0.592666,1.02658 0.28575,0 0.677334,-0.51858 0.836084,-0.71967 0.47625,-0.61383 1.016,-1.16416 1.629833,-1.61925 l 0.02117,0.0212 c -0.338667,0.48683 -0.910167,1.18533 -0.910167,1.82033 0,0.35984 0.1905,0.6985 0.592667,0.6985 0.772583,0 1.862666,-1.30175 2.423583,-1.79916 l -0.08467,-0.46567 z"
         style="fill:#ffffff;stroke-width:0.26458332"
         id="path3894"
         inkscape:connector-curvature="0" />
      <path
         d="m -32.023823,-252.25383 c -0.1905,0.15875 -0.656166,0.52916 -0.910166,0.52916 -0.105834,0 -0.1905,-0.0952 -0.1905,-0.1905 0,-0.73025 1.30175,-1.53458 1.30175,-1.94733 -0.03175,-0.22225 -0.09525,-0.41275 -0.15875,-0.5715 -0.0635,-0.14817 -0.127,-0.20108 -0.169334,-0.20108 -0.306916,0 -2.25425,1.30175 -3.100916,2.38125 -0.04233,0.0529 -0.137584,0.14816 -0.211667,0.14816 -0.0635,0 -0.116417,-0.0529 -0.116417,-0.11641 0,-0.254 1.3335,-1.32292 1.3335,-1.73567 0,-0.0635 0.05292,-0.21167 -0.582083,-0.23283 -0.179917,0 -0.275167,0.0106 -0.41275,0.127 -0.613833,0.51858 -1.280583,1.5875 -1.248833,2.31775 0.01058,0.35983 0.127,1.02658 0.592666,1.02658 0.28575,0 0.677334,-0.51858 0.836084,-0.71967 0.47625,-0.61383 1.016,-1.16416 1.629833,-1.61925 l 0.02117,0.0212 c -0.338667,0.48683 -0.910167,1.18533 -0.910167,1.82033 0,0.35984 0.1905,0.6985 0.592667,0.6985 0.772583,0 1.862666,-1.30175 2.423583,-1.79916 l -0.08467,-0.46567 z"
         style="fill:#ffffff;stroke-width:0.26458332"
         id="path3896"
         inkscape:connector-curvature="0" />
      <path
         d="m -28.193318,-253.61908 0.02117,0.0212 c -2.0955,2.11667 -2.423583,2.08492 -2.63525,2.12725 -0.15875,0.0318 -0.201083,-0.15875 -0.211667,-0.21166 0,-0.51859 0.306917,-1.16417 2.82575,-1.93675 z m -0.5715,1.42875 0.02117,0.0212 c -0.137583,0.28575 -0.391583,0.84667 -0.391583,1.18534 0,0.30691 0.15875,0.56091 0.508,0.56091 0.518583,0 1.936749,-1.13241 2.391833,-1.651 l -0.08467,-0.39158 c -0.455083,0.30692 -1.058333,0.84667 -1.502833,0.84667 -0.169334,0 -0.328083,-0.0741 -0.328083,-0.254 0,-0.49742 0.920749,-1.23825 0.920749,-1.57692 0,-0.23283 -0.105833,-0.34925 -0.306916,-0.43392 0.09525,-0.0318 0.370416,-0.13758 0.370416,-0.26458 0,-0.127 -0.201083,-0.51858 -0.687916,-0.508 -1.227667,0.0317 -3.979333,1.38642 -3.937,2.70933 0.02117,0.55034 0.635,1.24884 0.931333,1.24884 0.243417,0 0.92075,-0.55034 1.121834,-0.70909 z"
         style="fill:#ffffff;stroke-width:0.26458332"
         id="path3898"
         inkscape:connector-curvature="0" />
      <path
         d="m -20.116415,-255.21717 c 0.01058,-0.24341 1.185333,-1.22766 3.915833,-1.32291 l 0.02117,0.0212 c -0.5715,0.39159 -0.772583,0.71967 -0.772583,0.74084 0,0.10583 0.0635,0.15875 0.169333,0.15875 0.08467,0 0.1905,-0.0635 0.264584,-0.10584 0.41275,-0.29633 0.497416,-0.34925 0.9525,-0.51858 0.624416,-0.24342 0.889,-0.42333 0.889,-1.2065 0,-0.21167 -0.03175,-0.29633 -0.275167,-0.34925 -0.4445,-0.0952 -0.889,-0.14817 -1.3335,-0.14817 -2.31775,0 -4.233333,1.00542 -4.561416,1.54517 -0.169334,0.28575 -0.338667,1.05833 -0.338667,1.40758 0,0.635 0.550333,0.80434 1.0795,0.889 0.508,0.0847 3.439583,0.508 3.439583,1.04775 0,0.16934 -1.037167,1.25942 -4.815416,1.12184 v -0.0212 c 0.0635,-0.0635 0.116416,-0.11642 0.179916,-0.15875 0.07408,-0.0423 0.179917,-0.0952 0.179917,-0.20108 0,-0.0635 -0.03175,-0.0741 -0.08467,-0.0741 -0.15875,0 -0.783166,0.20109 -0.910166,0.30692 -0.169334,0.15875 -0.53975,0.71967 -0.53975,0.94192 0,0.61383 1.291166,0.61383 1.703916,0.61383 1.524,0 5.217583,-0.33867 5.217583,-2.44475 0,-0.51858 -0.497416,-1.0795 -1.566333,-1.3335 -2.95275,-0.68792 -2.815166,-0.762 -2.815167,-0.91017 z"
         style="fill:#ffffff;stroke-width:0.26458332"
         id="path3900"
         inkscape:connector-curvature="0" />
      <path
         d="m -14.508406,-252.43375 c 0.677334,-0.66675 4.042834,-4.15925 4.042834,-4.87892 0,-0.21166 -0.28575,-0.28575 -0.455084,-0.28575 -0.359833,0 -2.465916,1.85209 -3.71475,3.91584 -0.370416,0.60325 -0.645583,1.11125 -0.645583,1.8415 0,0.24341 0.05292,1.06891 0.423333,1.06891 0.338667,0 0.867834,-1.12183 2.677584,-2.36008 l 0.02117,0.0212 c -0.381,0.49741 -1.11125,1.30175 -1.11125,1.9685 0,0.28575 0.169334,0.56091 0.486834,0.56091 0.582083,0 1.862666,-1.03716 2.3495,-1.40758 l -0.05292,-0.43392 c -0.306917,0.20109 -1.0795,0.77259 -1.42875,0.77259 -0.127,0 -0.232833,-0.0847 -0.232833,-0.22225 0,-0.10584 -0.03175,-0.13759 0.624416,-0.93134 0.127,-0.14816 0.550334,-0.61383 0.550334,-0.81491 0,-0.24342 -0.254,-0.508 -0.508,-0.508 -0.582084,0 -2.50825,1.69333 -3.026834,2.10608 z"
         style="fill:#ffffff;stroke-width:0.26458332"
         id="path3902"
         inkscape:connector-curvature="0" />
      <path
         d="m -7.6143588,-252.4655 c -0.4233333,0.30692 -0.9736666,0.86783 -1.5345833,0.86783 -0.4868333,0 -0.6455833,-0.23283 -0.5609166,-0.66675 0.4445,-0.30691 1.4922499,-1.24883 1.4922499,-1.778 0,-0.23283 -0.28575,-0.29633 -0.4656666,-0.29633 -0.635,0 -1.9579166,1.25942 -1.9579166,2.55058 0,0.53975 0.28575,1.25942 0.9101666,1.25942 0.8043333,0 1.7356666,-0.9525 2.2119166,-1.53458 z m -0.4974166,-2.08492 c 0.4550833,0 0.8466666,-0.51858 0.8466666,-0.94191 0,-0.1905 -0.15875,-0.32809 -0.34925,-0.32809 -0.41275,0 -0.92075,0.381 -0.92075,0.81492 0,0.254 0.1693334,0.45508 0.4233334,0.45508 z"
         style="fill:#ffffff;stroke-width:0.26458332"
         id="path3904"
         inkscape:connector-curvature="0" />
      <path
         d="m -6.4148028,-253.69317 c 0.4974167,-1.09008 1.1006667,-2.04258 1.61925,-2.29658 -0.1905,0.60325 -0.8466667,1.61925 -1.5980833,2.31775 z m 2.06375,1.12184 c -0.4233334,0.381 -1.23825,1.05833 -1.8203333,1.05833 -0.28575,0 -0.4339167,-0.21167 -0.5291667,-0.45508 -0.052917,-0.254 -0.021167,-0.55034 0.074083,-0.73025 2.2965832,-2.2225 2.5717499,-3.15384 2.6458332,-4.15925 0.010583,-0.13759 -0.03175,-0.39159 -0.2116666,-0.39159 -0.3386667,0 -1.3440833,0.98425 -2.2754166,2.13784 -0.6879167,0.84666 -1.1641667,2.04258 -1.1641667,3.15383 0,0.62442 0.1693334,1.37583 0.9419167,1.37583 0.9101666,0 1.9049999,-1.06891 2.4870832,-1.67216 z"
         style="fill:#ffffff;stroke-width:0.26458332"
         id="path3906"
         inkscape:connector-curvature="0" />
      <path
         d="m -0.17295004,-252.7195 c -0.32808332,0.24342 -0.62441664,0.64558 -1.09008326,0.56092 0.2010833,-0.41275 0.41274995,-0.78317 0.41274995,-1.24884 0,-0.3175 -0.0635,-0.53975 -0.38099995,-0.62441 0.1164166,-0.0635 0.24341662,-0.127 0.24341662,-0.28575 0,-0.28575 -0.34925002,-0.39159 -0.58208332,-0.381 -0.6455833,0.0317 -1.4075833,0.3175 -1.9790833,0.78316 -0.5926666,0.45509 -0.9842499,0.98425 -0.9630833,1.778 0.042333,0.96309 0.5503333,1.51342 1.1006667,1.51342 0.6667499,0 1.1853333,-0.33867 1.6298332,-0.79375 0.7725834,0 1.23825001,-0.254 1.71449999,-0.85725 z m -1.94733326,-0.8255 c 0.042333,0.0212 -0.4550833,0.68792 -0.4550833,1.23825 0,0.17992 0.052917,0.3175 0.127,0.48683 -0.2434167,0.22225 -0.4656667,0.42334 -0.8149167,0.42334 -0.2645833,0 -0.4656666,-0.0952 -0.4656666,-0.40217 0,-0.32808 0.2010833,-0.74083 0.4339166,-0.97367 0.3175,-0.30691 0.8149167,-0.56091 1.17475,-0.77258 z"
         style="fill:#ffffff;stroke-width:0.26458332"
         id="path3908"
         inkscape:connector-curvature="0" />
      <path
         d="m 2.6367584,-253.75667 c -0.28575,0.35984 -0.5715,0.762 -0.5291667,1.24884 -0.22225,0.21166 -1.0583333,0.98425 -1.36524994,0.98425 -0.21166666,0 -0.25399999,-0.24342 -0.25399999,-0.41275 0,-0.16934 0.10583333,-0.45509 0.15874999,-0.62442 0.38100004,-0.3175 1.37583334,-1.38642 1.37583334,-1.86267 0,-0.22225 -0.4868334,-0.24341 -0.635,-0.24341 -0.3704167,0 -1.67216664,1.016 -1.67216664,2.4765 0,0.80433 0.42333332,1.59808 1.04774996,1.59808 0.41274998,0 1.48166658,-0.93133 1.77799998,-1.27 0.1799166,0.127 0.3280833,0.27517 0.5503333,0.27517 0.5926666,0 0.98425,-0.32809 1.3546666,-0.75142 l -0.074083,-0.4445 c -0.2328333,0.15875 -0.6244167,0.42333 -0.8995833,0.42333 -0.1693334,0 -0.2434167,-0.0318 -0.3598333,-0.13758 0.2645833,-0.37042 0.8784166,-1.36525 0.8784166,-1.78858 0,-0.21167 -0.1058333,-0.34925 -0.3175,-0.34925 -0.3704167,0 -0.8360833,0.61383 -1.0371669,0.87841 z"
         style="fill:#ffffff;stroke-width:0.26458332"
         id="path3910"
         inkscape:connector-curvature="0" />
      <path
         d="m 7.587442,-253.61908 0.021167,0.0212 c -2.0954999,2.11667 -2.4235832,2.08492 -2.6352499,2.12725 -0.15875,0.0318 -0.2010833,-0.15875 -0.2116666,-0.21166 0,-0.51859 0.3069166,-1.16417 2.8257499,-1.93675 z m -0.5715,1.42875 0.021167,0.0212 c -0.1375834,0.28575 -0.3915834,0.84667 -0.3915834,1.18534 0,0.30691 0.15875,0.56091 0.508,0.56091 0.5185833,0 1.93675,-1.13241 2.3918333,-1.651 l -0.084667,-0.39158 c -0.4550833,0.30692 -1.0583333,0.84667 -1.5028333,0.84667 -0.1693333,0 -0.3280833,-0.0741 -0.3280833,-0.254 0,-0.49742 0.92075,-1.23825 0.92075,-1.57692 0,-0.23283 -0.1058333,-0.34925 -0.3069167,-0.43392 0.09525,-0.0318 0.3704167,-0.13758 0.3704167,-0.26458 0,-0.127 -0.2010833,-0.51858 -0.6879167,-0.508 -1.2276666,0.0317 -3.9793332,1.38642 -3.9369998,2.70933 0.021167,0.55034 0.6349999,1.24884 0.9313333,1.24884 0.2434166,0 0.9207499,-0.55034 1.1218333,-0.70909 z"
         style="fill:#ffffff;stroke-width:0.26458332"
         id="path3912"
         inkscape:connector-curvature="0" />
    </g>
  </g>
  <g
     id="g3872"
     transform="translate(59.264401,272.07449)">
    <g
       id="flowRoot3862"
       style="font-style:normal;font-variant:normal;font-weight:normal;font-stretch:normal;font-size:40px;line-height:1.25;font-family:'Brush Script Std';-inkscape-font-specification:'Brush Script Std';letter-spacing:0px;word-spacing:0px;fill:#000000;fill-opacity:1;stroke:none" />
  </g>
  <flowRoot
     xml:space="preserve"
     id="flowRoot3874"
     style="font-style:normal;font-variant:normal;font-weight:normal;font-stretch:normal;font-size:10.58333302px;line-height:1.25;font-family:'Brush Script Std';-inkscape-font-specification:'Brush Script Std';letter-spacing:0px;word-spacing:0px;fill:#000000;fill-opacity:1;stroke:none;stroke-width:0.26458332"
     transform="translate(59.264401,272.07449)"><flowRegion
       id="flowRegion3876"
       style="stroke-width:0.26458332"><rect
         id="rect3878"
         width="43.297665"
         height="21.916101"
         x="11.22532"
         y="34.006786"
         style="stroke-width:0.07000434" /></flowRegion><flowPara
       id="flowPara3880"
       style="stroke-width:0.26458332"></flowPara></flowRoot></svg>
